<svg xmlns="http://www.w3.org/2000/svg" width="597" height="448" viewBox="0 0 597 448"><title>houses-left</title><path d="M591.77,385a1.56,1.56,0,0,1-1.26-.64l-24.56-33.64-23.21-14-23.22,14L495,384.4a1.56,1.56,0,0,1-2.52-1.84l24.75-33.89a1.57,1.57,0,0,1,.45-.42l24.29-14.66a1.56,1.56,0,0,1,1.61,0l24.29,14.66a1.56,1.56,0,0,1,.45.42L593,382.56a1.56,1.56,0,0,1-1.26,2.48Z" transform="translate(0.5 0.5)" style="fill:#171717;stroke:#171717;stroke-miterlimit:10;stroke-width:1.0002933810373547px"/><path d="M580.47,422H505a1.56,1.56,0,0,1-1.56-1.56V368a1.56,1.56,0,0,1,3.12,0v50.87h72.35V368a1.56,1.56,0,0,1,3.12,0v52.42A1.56,1.56,0,0,1,580.47,422Z" transform="translate(0.5 0.5)" style="fill:#171717;stroke:#171717;stroke-miterlimit:10;stroke-width:1.0002933810373547px"/><path d="M594.44,422.06H490.87a1.56,1.56,0,1,1,0-3.11H594.44a1.56,1.56,0,1,1,0,3.11Z" transform="translate(0.5 0.5)" style="fill:#171717;stroke:#171717;stroke-miterlimit:10;stroke-width:1.0002933810373547px"/><path d="M567.79,393.28H517.53a1.56,1.56,0,1,1,0-3.11h50.26a1.56,1.56,0,1,1,0,3.11Z" transform="translate(0.5 0.5)" style="fill:#171717;stroke:#171717;stroke-miterlimit:10;stroke-width:1.0002933810373547px"/><path d="M558.55,422.06H526.7a1.56,1.56,0,0,1-1.56-1.56V391.72a1.56,1.56,0,0,1,1.56-1.56h31.85a1.56,1.56,0,0,1,1.56,1.56V420.5A1.56,1.56,0,0,1,558.55,422.06Zm-30.29-3.11H557V393.28H528.25v25.66Z" transform="translate(0.5 0.5)" style="fill:#171717;stroke:#171717;stroke-miterlimit:10;stroke-width:1.0002933810373547px"/><path d="M558.55,422.06a1.56,1.56,0,0,1-1-.4l-31.85-28.78a1.56,1.56,0,0,1,2.09-2.31l31.85,28.78a1.56,1.56,0,0,1-1,2.71Z" transform="translate(0.5 0.5)" style="fill:#171717;stroke:#171717;stroke-miterlimit:10;stroke-width:1.0002933810373547px"/><path d="M526.7,422.06a1.56,1.56,0,0,1-1-2.71l31.85-28.78a1.56,1.56,0,0,1,2.09,2.31l-31.85,28.78A1.56,1.56,0,0,1,526.7,422.06Z" transform="translate(0.5 0.5)" style="fill:#171717;stroke:#171717;stroke-miterlimit:10;stroke-width:1.0002933810373547px"/><path d="M548.92,368.32H536.55a1.56,1.56,0,0,1-1.56-1.56v-7.56a1.56,1.56,0,0,1,1.56-1.56h12.37a1.56,1.56,0,0,1,1.56,1.56v7.56A1.56,1.56,0,0,1,548.92,368.32Zm-10.82-3.11h9.26v-4.44h-9.26Z" transform="translate(0.5 0.5)" style="fill:#171717;stroke:#171717;stroke-miterlimit:10;stroke-width:1.0002933810373547px"/><path d="M509.66,363.17a1.56,1.56,0,0,1-1.56-1.56v-34a15,15,0,0,1,30,0v11.09a1.56,1.56,0,0,1-3.12,0V327.57a11.88,11.88,0,0,0-23.77,0v34A1.56,1.56,0,0,1,509.66,363.17Z" transform="translate(0.5 0.5)" style="fill:#171717;stroke:#171717;stroke-miterlimit:10;stroke-width:1.0002933810373547px"/><path d="M536.55,329.13H509.66a1.56,1.56,0,1,1,0-3.11h26.89a1.56,1.56,0,1,1,0,3.11Z" transform="translate(0.5 0.5)" style="fill:#171717;stroke:#171717;stroke-miterlimit:10;stroke-width:1.0002933810373547px"/><path d="M186.94,106.58H94.76a1.56,1.56,0,1,1,0-3.11h92.18a1.56,1.56,0,1,1,0,3.11Z" transform="translate(0.5 0.5)" style="fill:#171717;stroke:#171717;stroke-miterlimit:10;stroke-width:1.0002933810373547px"/><path d="M179.48,106.58h-77a1.56,1.56,0,0,1-1.56-1.56V42.14a1.56,1.56,0,0,1,.7-1.3l38.49-25.56a1.56,1.56,0,0,1,1.72,0l38.5,25.56a1.56,1.56,0,0,1,.7,1.3V105A1.56,1.56,0,0,1,179.48,106.58ZM104,103.47h73.87V43L141,18.44,104,43Z" transform="translate(0.5 0.5)" style="fill:#171717;stroke:#171717;stroke-miterlimit:10;stroke-width:1.0002933810373547px"/><path d="M98.21,45.18a6.45,6.45,0,0,1-3.58-11.82L137.41,4.94a6.56,6.56,0,0,1,7.14,0l42.78,28.41A6.45,6.45,0,0,1,180.2,44.1L141,18.06l-39.21,26A6.43,6.43,0,0,1,98.21,45.18ZM141,7a3.33,3.33,0,0,0-1.85.56L96.36,36a3.34,3.34,0,0,0-.93,4.62,3.42,3.42,0,0,0,4.62.93l40.07-26.61a1.56,1.56,0,0,1,1.72,0l40.08,26.61a3.42,3.42,0,0,0,4.63-.93,3.34,3.34,0,0,0-.93-4.62L142.83,7.54A3.34,3.34,0,0,0,141,7Z" transform="translate(0.5 0.5)" style="fill:#171717;stroke:#171717;stroke-miterlimit:10;stroke-width:1.0002933810373547px"/><path d="M162.7,106.58h-16a1.56,1.56,0,0,1-1.56-1.56V77.1a1.56,1.56,0,0,1,1.56-1.56h16a1.56,1.56,0,0,1,1.56,1.56V105A1.56,1.56,0,0,1,162.7,106.58Zm-14.49-3.11h12.93V78.66H148.21Z" transform="translate(0.5 0.5)" style="fill:#171717;stroke:#171717;stroke-miterlimit:10;stroke-width:1.0002933810373547px"/><path d="M120.14,61.13h-8a1.56,1.56,0,0,1-1.56-1.56V49.39a1.56,1.56,0,0,1,1.56-1.56h8a1.56,1.56,0,0,1,1.56,1.56V59.57A1.56,1.56,0,0,1,120.14,61.13ZM113.68,58h4.9V50.94h-4.9Z" transform="translate(0.5 0.5)" style="fill:#171717;stroke:#171717;stroke-miterlimit:10;stroke-width:1.0002933810373547px"/><path d="M128.16,61.13h-8a1.56,1.56,0,0,1-1.56-1.56V49.39a1.56,1.56,0,0,1,1.56-1.56h8a1.56,1.56,0,0,1,1.56,1.56V59.57A1.56,1.56,0,0,1,128.16,61.13ZM121.7,58h4.91V50.94H121.7Z" transform="translate(0.5 0.5)" style="fill:#171717;stroke:#171717;stroke-miterlimit:10;stroke-width:1.0002933810373547px"/><path d="M158.48,61.13h-8a1.56,1.56,0,0,1-1.56-1.56V49.39a1.56,1.56,0,0,1,1.56-1.56h8A1.56,1.56,0,0,1,160,49.39V59.57A1.56,1.56,0,0,1,158.48,61.13ZM152,58h4.9V50.94H152Z" transform="translate(0.5 0.5)" style="fill:#171717;stroke:#171717;stroke-miterlimit:10;stroke-width:1.0002933810373547px"/><path d="M166.5,61.13h-8a1.56,1.56,0,0,1-1.56-1.56V49.39a1.56,1.56,0,0,1,1.56-1.56h8a1.56,1.56,0,0,1,1.56,1.56V59.57A1.56,1.56,0,0,1,166.5,61.13ZM160,58h4.9V50.94H160Z" transform="translate(0.5 0.5)" style="fill:#171717;stroke:#171717;stroke-miterlimit:10;stroke-width:1.0002933810373547px"/><path d="M120.14,94.08h-8a1.56,1.56,0,0,1-1.56-1.56V82.33a1.56,1.56,0,0,1,1.56-1.56h8a1.56,1.56,0,0,1,1.56,1.56V92.52A1.56,1.56,0,0,1,120.14,94.08ZM113.68,91h4.9V83.89h-4.9Z" transform="translate(0.5 0.5)" style="fill:#171717;stroke:#171717;stroke-miterlimit:10;stroke-width:1.0002933810373547px"/><path d="M128.16,94.08h-8a1.56,1.56,0,0,1-1.56-1.56V82.33a1.56,1.56,0,0,1,1.56-1.56h8a1.56,1.56,0,0,1,1.56,1.56V92.52A1.56,1.56,0,0,1,128.16,94.08ZM121.7,91h4.91V83.89H121.7Z" transform="translate(0.5 0.5)" style="fill:#171717;stroke:#171717;stroke-miterlimit:10;stroke-width:1.0002933810373547px"/><path d="M171.22,26.08a1.56,1.56,0,0,1-1.56-1.56V8.82H160v7.24a1.56,1.56,0,0,1-3.12,0V7.26a1.56,1.56,0,0,1,1.56-1.56h12.74a1.56,1.56,0,0,1,1.56,1.56V24.53A1.56,1.56,0,0,1,171.22,26.08Z" transform="translate(0.5 0.5)" style="fill:#171717;stroke:#171717;stroke-miterlimit:10;stroke-width:1.0002933810373547px"/><path d="M173.71,8.82H156a1.56,1.56,0,0,1-1.56-1.56V1.56A1.56,1.56,0,0,1,156,0h17.71a1.56,1.56,0,0,1,1.56,1.56V7.26A1.56,1.56,0,0,1,173.71,8.82ZM157.55,5.71h14.6V3.11h-14.6Z" transform="translate(0.5 0.5)" style="fill:#171717;stroke:#171717;stroke-miterlimit:10;stroke-width:1.0002933810373547px"/><path d="M389.94,114.26H270.17a1.56,1.56,0,1,1,0-3.11H389.94a1.56,1.56,0,1,1,0,3.11Z" transform="translate(0.5 0.5)" style="fill:#171717;stroke:#171717;stroke-miterlimit:10;stroke-width:1.0002933810373547px"/><path d="M345.33,98a1.56,1.56,0,0,1-1.56-1.56v-76H320.22V96.26a1.56,1.56,0,0,1-3.12,0V18.85a1.56,1.56,0,0,1,1.56-1.56h26.67a1.56,1.56,0,0,1,1.56,1.56V96.42A1.56,1.56,0,0,1,345.33,98Z" transform="translate(0.5 0.5)" style="fill:#171717;stroke:#171717;stroke-miterlimit:10;stroke-width:1.0002933810373547px"/><path d="M382.72,38.78H345.33a1.56,1.56,0,0,1-1.56-1.56v-13a1.56,1.56,0,0,1,1.56-1.56h37.39a1.56,1.56,0,0,1,1.56,1.56v13A1.56,1.56,0,0,1,382.72,38.78Zm-35.83-3.11h34.27V25.81H346.89Z" transform="translate(0.5 0.5)" style="fill:#171717;stroke:#171717;stroke-miterlimit:10;stroke-width:1.0002933810373547px"/><path d="M318.66,38.78H281.27a1.56,1.56,0,0,1-1.56-1.56v-13a1.56,1.56,0,0,1,1.56-1.56h37.39a1.56,1.56,0,0,1,1.56,1.56v13A1.56,1.56,0,0,1,318.66,38.78Zm-35.83-3.11H317.1V25.81H282.83v9.86Z" transform="translate(0.5 0.5)" style="fill:#171717;stroke:#171717;stroke-miterlimit:10;stroke-width:1.0002933810373547px"/><path d="M382.72,98.47a1.56,1.56,0,0,1-1.56-1.56V39.33H346.89V96.42a1.56,1.56,0,0,1-3.12,0V37.77a1.56,1.56,0,0,1,1.56-1.56h37.39a1.56,1.56,0,0,1,1.56,1.56V96.91A1.56,1.56,0,0,1,382.72,98.47Z" transform="translate(0.5 0.5)" style="fill:#171717;stroke:#171717;stroke-miterlimit:10;stroke-width:1.0002933810373547px"/><path d="M281.27,98.47a1.56,1.56,0,0,1-1.56-1.56V37.77a1.56,1.56,0,0,1,1.56-1.56h37.39a1.56,1.56,0,0,1,1.56,1.56V96.26a1.56,1.56,0,0,1-3.12,0V39.33H282.83V96.91A1.56,1.56,0,0,1,281.27,98.47Z" transform="translate(0.5 0.5)" style="fill:#171717;stroke:#171717;stroke-miterlimit:10;stroke-width:1.0002933810373547px"/><path d="M292.29,54.41h-6a1.56,1.56,0,0,1-1.56-1.56V43a1.56,1.56,0,0,1,1.56-1.56h6A1.56,1.56,0,0,1,293.85,43v9.89A1.56,1.56,0,0,1,292.29,54.41Zm-4.39-3.11h2.83V44.51h-2.83Z" transform="translate(0.5 0.5)" style="fill:#171717;stroke:#171717;stroke-miterlimit:10;stroke-width:1.0002933810373547px"/><path d="M302.42,54.41h-5.95a1.56,1.56,0,0,1-1.56-1.56V43a1.56,1.56,0,0,1,1.56-1.56h5.95A1.56,1.56,0,0,1,304,43v9.89A1.56,1.56,0,0,1,302.42,54.41ZM298,51.29h2.83V44.51H298Z" transform="translate(0.5 0.5)" style="fill:#171717;stroke:#171717;stroke-miterlimit:10;stroke-width:1.0002933810373547px"/><path d="M312.54,54.41h-6A1.56,1.56,0,0,1,305,52.85V43a1.56,1.56,0,0,1,1.56-1.56h6A1.56,1.56,0,0,1,314.1,43v9.89A1.56,1.56,0,0,1,312.54,54.41Zm-4.39-3.11H311V44.51h-2.83Z" transform="translate(0.5 0.5)" style="fill:#171717;stroke:#171717;stroke-miterlimit:10;stroke-width:1.0002933810373547px"/><path d="M292.29,71.06h-6a1.56,1.56,0,0,1-1.56-1.56V59.61a1.56,1.56,0,0,1,1.56-1.56h6a1.56,1.56,0,0,1,1.56,1.56V69.5A1.56,1.56,0,0,1,292.29,71.06Zm-4.39-3.11h2.83V61.17h-2.83Z" transform="translate(0.5 0.5)" style="fill:#171717;stroke:#171717;stroke-miterlimit:10;stroke-width:1.0002933810373547px"/><path d="M302.42,71.06h-5.95a1.56,1.56,0,0,1-1.56-1.56V59.61a1.56,1.56,0,0,1,1.56-1.56h5.95A1.56,1.56,0,0,1,304,59.61V69.5A1.56,1.56,0,0,1,302.42,71.06ZM298,67.95h2.83V61.17H298Z" transform="translate(0.5 0.5)" style="fill:#171717;stroke:#171717;stroke-miterlimit:10;stroke-width:1.0002933810373547px"/><path d="M312.54,71.06h-6A1.56,1.56,0,0,1,305,69.5V59.61a1.56,1.56,0,0,1,1.56-1.56h6a1.56,1.56,0,0,1,1.56,1.56V69.5A1.56,1.56,0,0,1,312.54,71.06Zm-4.39-3.11H311V61.17h-2.83Z" transform="translate(0.5 0.5)" style="fill:#171717;stroke:#171717;stroke-miterlimit:10;stroke-width:1.0002933810373547px"/><path d="M292.29,87.71h-6a1.56,1.56,0,0,1-1.56-1.56V76.26a1.56,1.56,0,0,1,1.56-1.56h6a1.56,1.56,0,0,1,1.56,1.56v9.89A1.56,1.56,0,0,1,292.29,87.71Zm-4.39-3.11h2.83V77.81h-2.83Z" transform="translate(0.5 0.5)" style="fill:#171717;stroke:#171717;stroke-miterlimit:10;stroke-width:1.0002933810373547px"/><path d="M302.42,87.71h-5.95a1.56,1.56,0,0,1-1.56-1.56V76.26a1.56,1.56,0,0,1,1.56-1.56h5.95A1.56,1.56,0,0,1,304,76.26v9.89A1.56,1.56,0,0,1,302.42,87.71ZM298,84.6h2.83V77.81H298Z" transform="translate(0.5 0.5)" style="fill:#171717;stroke:#171717;stroke-miterlimit:10;stroke-width:1.0002933810373547px"/><path d="M312.54,87.71h-6A1.56,1.56,0,0,1,305,86.15V76.26a1.56,1.56,0,0,1,1.56-1.56h6a1.56,1.56,0,0,1,1.56,1.56v9.89A1.56,1.56,0,0,1,312.54,87.71Zm-4.39-3.11H311V77.81h-2.83Z" transform="translate(0.5 0.5)" style="fill:#171717;stroke:#171717;stroke-miterlimit:10;stroke-width:1.0002933810373547px"/><path d="M292.29,98.47h-6a1.56,1.56,0,0,1-1.56-1.56v-4a1.56,1.56,0,0,1,1.56-1.56h6a1.56,1.56,0,0,1,1.56,1.56v4A1.56,1.56,0,0,1,292.29,98.47Zm-4.39-3.11h2.83v-.89h-2.83Z" transform="translate(0.5 0.5)" style="fill:#171717;stroke:#171717;stroke-miterlimit:10;stroke-width:1.0002933810373547px"/><path d="M302.42,98.47h-5.95a1.56,1.56,0,0,1-1.56-1.56v-4a1.56,1.56,0,0,1,1.56-1.56h5.95A1.56,1.56,0,0,1,304,92.91v4A1.56,1.56,0,0,1,302.42,98.47ZM298,95.35h2.83v-.89H298Z" transform="translate(0.5 0.5)" style="fill:#171717;stroke:#171717;stroke-miterlimit:10;stroke-width:1.0002933810373547px"/><path d="M312.54,98.47h-6A1.56,1.56,0,0,1,305,96.91v-4a1.56,1.56,0,0,1,1.56-1.56h6a1.56,1.56,0,0,1,1.56,1.56v4A1.56,1.56,0,0,1,312.54,98.47Zm-4.39-3.11H311v-.89h-2.83Z" transform="translate(0.5 0.5)" style="fill:#171717;stroke:#171717;stroke-miterlimit:10;stroke-width:1.0002933810373547px"/><path d="M356.88,54.41h-6a1.56,1.56,0,0,1-1.56-1.56V43a1.56,1.56,0,0,1,1.56-1.56h6A1.56,1.56,0,0,1,358.43,43v9.89A1.56,1.56,0,0,1,356.88,54.41Zm-4.39-3.11h2.83V44.51h-2.83Z" transform="translate(0.5 0.5)" style="fill:#171717;stroke:#171717;stroke-miterlimit:10;stroke-width:1.0002933810373547px"/><path d="M367,54.41h-6a1.56,1.56,0,0,1-1.56-1.56V43a1.56,1.56,0,0,1,1.56-1.56h6A1.56,1.56,0,0,1,368.56,43v9.89A1.56,1.56,0,0,1,367,54.41Zm-4.39-3.11h2.84V44.51h-2.84Z" transform="translate(0.5 0.5)" style="fill:#171717;stroke:#171717;stroke-miterlimit:10;stroke-width:1.0002933810373547px"/><path d="M377.13,54.41h-6a1.56,1.56,0,0,1-1.56-1.56V43a1.56,1.56,0,0,1,1.56-1.56h6A1.56,1.56,0,0,1,378.69,43v9.89A1.56,1.56,0,0,1,377.13,54.41Zm-4.39-3.11h2.84V44.51h-2.84Z" transform="translate(0.5 0.5)" style="fill:#171717;stroke:#171717;stroke-miterlimit:10;stroke-width:1.0002933810373547px"/><path d="M356.88,71.06h-6a1.56,1.56,0,0,1-1.56-1.56V59.61a1.56,1.56,0,0,1,1.56-1.56h6a1.56,1.56,0,0,1,1.56,1.56V69.5A1.56,1.56,0,0,1,356.88,71.06Zm-4.39-3.11h2.83V61.17h-2.83Z" transform="translate(0.5 0.5)" style="fill:#171717;stroke:#171717;stroke-miterlimit:10;stroke-width:1.0002933810373547px"/><path d="M367,71.06h-6a1.56,1.56,0,0,1-1.56-1.56V59.61a1.56,1.56,0,0,1,1.56-1.56h6a1.56,1.56,0,0,1,1.56,1.56V69.5A1.56,1.56,0,0,1,367,71.06Zm-4.39-3.11h2.84V61.17h-2.84Z" transform="translate(0.5 0.5)" style="fill:#171717;stroke:#171717;stroke-miterlimit:10;stroke-width:1.0002933810373547px"/><path d="M377.13,71.06h-6a1.56,1.56,0,0,1-1.56-1.56V59.61a1.56,1.56,0,0,1,1.56-1.56h6a1.56,1.56,0,0,1,1.56,1.56V69.5A1.56,1.56,0,0,1,377.13,71.06Zm-4.39-3.11h2.84V61.17h-2.84Z" transform="translate(0.5 0.5)" style="fill:#171717;stroke:#171717;stroke-miterlimit:10;stroke-width:1.0002933810373547px"/><path d="M356.88,87.71h-6a1.56,1.56,0,0,1-1.56-1.56V76.26a1.56,1.56,0,0,1,1.56-1.56h6a1.56,1.56,0,0,1,1.56,1.56v9.89A1.56,1.56,0,0,1,356.88,87.71Zm-4.39-3.11h2.83V77.81h-2.83Z" transform="translate(0.5 0.5)" style="fill:#171717;stroke:#171717;stroke-miterlimit:10;stroke-width:1.0002933810373547px"/><path d="M367,87.71h-6a1.56,1.56,0,0,1-1.56-1.56V76.26a1.56,1.56,0,0,1,1.56-1.56h6a1.56,1.56,0,0,1,1.56,1.56v9.89A1.56,1.56,0,0,1,367,87.71Zm-4.39-3.11h2.84V77.81h-2.84Z" transform="translate(0.5 0.5)" style="fill:#171717;stroke:#171717;stroke-miterlimit:10;stroke-width:1.0002933810373547px"/><path d="M377.13,87.71h-6a1.56,1.56,0,0,1-1.56-1.56V76.26a1.56,1.56,0,0,1,1.56-1.56h6a1.56,1.56,0,0,1,1.56,1.56v9.89A1.56,1.56,0,0,1,377.13,87.71Zm-4.39-3.11h2.84V77.81h-2.84Z" transform="translate(0.5 0.5)" style="fill:#171717;stroke:#171717;stroke-miterlimit:10;stroke-width:1.0002933810373547px"/><path d="M356.88,98.47h-6a1.56,1.56,0,0,1-1.56-1.56v-4a1.56,1.56,0,0,1,1.56-1.56h6a1.56,1.56,0,0,1,1.56,1.56v4A1.56,1.56,0,0,1,356.88,98.47Zm-4.39-3.11h2.83v-.89h-2.83Z" transform="translate(0.5 0.5)" style="fill:#171717;stroke:#171717;stroke-miterlimit:10;stroke-width:1.0002933810373547px"/><path d="M367,98.47h-6a1.56,1.56,0,0,1-1.56-1.56v-4a1.56,1.56,0,0,1,1.56-1.56h6a1.56,1.56,0,0,1,1.56,1.56v4A1.56,1.56,0,0,1,367,98.47Zm-4.39-3.11h2.84v-.89h-2.84Z" transform="translate(0.5 0.5)" style="fill:#171717;stroke:#171717;stroke-miterlimit:10;stroke-width:1.0002933810373547px"/><path d="M377.13,98.47h-6a1.56,1.56,0,0,1-1.56-1.56v-4a1.56,1.56,0,0,1,1.56-1.56h6a1.56,1.56,0,0,1,1.56,1.56v4A1.56,1.56,0,0,1,377.13,98.47Zm-4.39-3.11h2.84v-.89h-2.84Z" transform="translate(0.5 0.5)" style="fill:#171717;stroke:#171717;stroke-miterlimit:10;stroke-width:1.0002933810373547px"/><path d="M316.26,114.26H278.49a1.56,1.56,0,0,1-1.56-1.56V96.91a1.56,1.56,0,0,1,1.56-1.56h37.77a1.56,1.56,0,0,1,1.56,1.56V112.7A1.56,1.56,0,0,1,316.26,114.26ZM280,111.14H314.7V98.47H280Z" transform="translate(0.5 0.5)" style="fill:#171717;stroke:#171717;stroke-miterlimit:10;stroke-width:1.0002933810373547px"/><path d="M385.61,114.26H347.84a1.56,1.56,0,0,1-1.56-1.56V96.91a1.56,1.56,0,0,1,1.56-1.56h37.77a1.56,1.56,0,0,1,1.56,1.56V112.7A1.56,1.56,0,0,1,385.61,114.26Zm-36.21-3.11h34.65V98.47H349.4Z" transform="translate(0.5 0.5)" style="fill:#171717;stroke:#171717;stroke-miterlimit:10;stroke-width:1.0002933810373547px"/><path d="M332,114.26a1.56,1.56,0,0,1-1.56-1.56V95.58l-13.87,2.86a1.56,1.56,0,1,1-.63-3.05l15.74-3.24a1.56,1.56,0,0,1,1.87,1.53v19A1.56,1.56,0,0,1,332,114.26Z" transform="translate(0.5 0.5)" style="fill:#171717;stroke:#171717;stroke-miterlimit:10;stroke-width:1.0002933810373547px"/><path d="M332,114.26a1.56,1.56,0,0,1-1.56-1.56v-19a1.56,1.56,0,0,1,1.87-1.53l15.74,3.24a1.56,1.56,0,1,1-.63,3.05l-13.87-2.86V112.7A1.56,1.56,0,0,1,332,114.26Z" transform="translate(0.5 0.5)" style="fill:#171717;stroke:#171717;stroke-miterlimit:10;stroke-width:1.0002933810373547px"/><path d="M332,46.51c-2.93,0-5.32-2.86-5.32-6.38s2.39-6.38,5.32-6.38,5.32,2.86,5.32,6.38S334.93,46.51,332,46.51Zm0-9.65c-1.2,0-2.21,1.5-2.21,3.27s1,3.27,2.21,3.27,2.21-1.5,2.21-3.27S333.19,36.87,332,36.87Z" transform="translate(0.5 0.5)" style="fill:#171717;stroke:#171717;stroke-miterlimit:10;stroke-width:1.0002933810373547px"/><path d="M325.12,96.64a1.56,1.56,0,0,1-1.56-1.56V52.85a1.56,1.56,0,0,1,3.12,0V95.08A1.56,1.56,0,0,1,325.12,96.64Z" transform="translate(0.5 0.5)" style="fill:#171717;stroke:#171717;stroke-miterlimit:10;stroke-width:1.0002933810373547px"/><path d="M338.92,96.64a1.56,1.56,0,0,1-1.56-1.56V52.85a1.56,1.56,0,0,1,3.12,0V95.08A1.56,1.56,0,0,1,338.92,96.64Z" transform="translate(0.5 0.5)" style="fill:#171717;stroke:#171717;stroke-miterlimit:10;stroke-width:1.0002933810373547px"/><path d="M92.86,274.64H14.17a1.56,1.56,0,0,1-1.56-1.56v-73.6a1.56,1.56,0,0,1,1.56-1.56H92.86a1.56,1.56,0,0,1,1.56,1.56v73.6A1.56,1.56,0,0,1,92.86,274.64Zm-77.13-3.11H91.3V201H15.73Z" transform="translate(0.5 0.5)" style="fill:#171717;stroke:#171717;stroke-miterlimit:10;stroke-width:1.0002933810373547px"/><path d="M62.84,274.64H44.18a1.56,1.56,0,0,1-1.56-1.56V253a1.56,1.56,0,0,1,1.56-1.56H62.84A1.56,1.56,0,0,1,64.4,253v20A1.56,1.56,0,0,1,62.84,274.64Zm-17.1-3.11H61.29V254.6H45.74Z" transform="translate(0.5 0.5)" style="fill:#171717;stroke:#171717;stroke-miterlimit:10;stroke-width:1.0002933810373547px"/><path d="M52.82,274.64a1.56,1.56,0,0,1-1.56-1.56V253a1.56,1.56,0,0,1,3.12,0v20A1.56,1.56,0,0,1,52.82,274.64Z" transform="translate(0.5 0.5)" style="fill:#171717;stroke:#171717;stroke-miterlimit:10;stroke-width:1.0002933810373547px"/><path d="M37.87,247.23H29.74a1.56,1.56,0,0,1-1.56-1.56v-8.13A1.56,1.56,0,0,1,29.74,236h8.13a1.56,1.56,0,0,1,1.56,1.56v8.13A1.56,1.56,0,0,1,37.87,247.23Zm-6.58-3.11h5v-5h-5Z" transform="translate(0.5 0.5)" style="fill:#171717;stroke:#171717;stroke-miterlimit:10;stroke-width:1.0002933810373547px"/><path d="M57.58,247.23H49.45a1.56,1.56,0,0,1-1.56-1.56v-8.13A1.56,1.56,0,0,1,49.45,236h8.13a1.56,1.56,0,0,1,1.56,1.56v8.13A1.56,1.56,0,0,1,57.58,247.23ZM51,244.12h5v-5H51Z" transform="translate(0.5 0.5)" style="fill:#171717;stroke:#171717;stroke-miterlimit:10;stroke-width:1.0002933810373547px"/><path d="M77.28,247.23H69.15a1.56,1.56,0,0,1-1.56-1.56v-8.13A1.56,1.56,0,0,1,69.15,236h8.13a1.56,1.56,0,0,1,1.56,1.56v8.13A1.56,1.56,0,0,1,77.28,247.23Zm-6.57-3.11h5v-5h-5Z" transform="translate(0.5 0.5)" style="fill:#171717;stroke:#171717;stroke-miterlimit:10;stroke-width:1.0002933810373547px"/><path d="M37.87,219.88H29.74a1.56,1.56,0,0,1-1.56-1.56V210.2a1.56,1.56,0,0,1,1.56-1.56h8.13a1.56,1.56,0,0,1,1.56,1.56v8.13A1.56,1.56,0,0,1,37.87,219.88Zm-6.58-3.11h5v-5h-5Z" transform="translate(0.5 0.5)" style="fill:#171717;stroke:#171717;stroke-miterlimit:10;stroke-width:1.0002933810373547px"/><path d="M57.58,219.88H49.45a1.56,1.56,0,0,1-1.56-1.56V210.2a1.56,1.56,0,0,1,1.56-1.56h8.13a1.56,1.56,0,0,1,1.56,1.56v8.13A1.56,1.56,0,0,1,57.58,219.88ZM51,216.77h5v-5H51Z" transform="translate(0.5 0.5)" style="fill:#171717;stroke:#171717;stroke-miterlimit:10;stroke-width:1.0002933810373547px"/><path d="M77.28,219.88H69.15a1.56,1.56,0,0,1-1.56-1.56V210.2a1.56,1.56,0,0,1,1.56-1.56h8.13a1.56,1.56,0,0,1,1.56,1.56v8.13A1.56,1.56,0,0,1,77.28,219.88Zm-6.57-3.11h5v-5h-5Z" transform="translate(0.5 0.5)" style="fill:#171717;stroke:#171717;stroke-miterlimit:10;stroke-width:1.0002933810373547px"/><path d="M92.86,231.79H14.17a1.56,1.56,0,1,1,0-3.11H92.86a1.56,1.56,0,1,1,0,3.11Z" transform="translate(0.5 0.5)" style="fill:#171717;stroke:#171717;stroke-miterlimit:10;stroke-width:1.0002933810373547px"/><path d="M100.48,201H6.54a1.56,1.56,0,0,1-1.18-2.57l18.35-21.3a1.56,1.56,0,0,1,1.18-.54H82.14a1.56,1.56,0,0,1,1.18.54l18.35,21.3a1.56,1.56,0,0,1-1.18,2.57ZM9.94,197.93H97.09L81.42,179.74H25.6Z" transform="translate(0.5 0.5)" style="fill:#171717;stroke:#171717;stroke-miterlimit:10;stroke-width:1.0002933810373547px"/><path d="M104.08,274.64H1.56a1.56,1.56,0,1,1,0-3.11H104.08a1.56,1.56,0,1,1,0,3.11Z" transform="translate(0.5 0.5)" style="fill:#171717;stroke:#171717;stroke-miterlimit:10;stroke-width:1.0002933810373547px"/><path d="M449.23,288.89H416.45a1.56,1.56,0,0,1-1.56-1.56V194a1.56,1.56,0,0,1,1.56-1.56h32.78a1.56,1.56,0,0,1,1.56,1.56v93.36A1.56,1.56,0,0,1,449.23,288.89ZM418,285.77h29.67V195.53H418Z" transform="translate(0.5 0.5)" style="fill:#171717;stroke:#171717;stroke-miterlimit:10;stroke-width:1.0002933810373547px"/><path d="M416.45,288.89H360a1.56,1.56,0,0,1-1.56-1.56V225.27a1.56,1.56,0,0,1,1.06-1.48l56.4-19a1.56,1.56,0,0,1,2.06,1.47v81.08A1.56,1.56,0,0,1,416.45,288.89Zm-54.84-3.11h53.28V208.42l-53.28,18Z" transform="translate(0.5 0.5)" style="fill:#171717;stroke:#171717;stroke-miterlimit:10;stroke-width:1.0002933810373547px"/><path d="M382,241.65H369.39a1.56,1.56,0,0,1-1.56-1.56v-8.39a1.56,1.56,0,0,1,1.56-1.56H382a1.56,1.56,0,0,1,1.56,1.56v8.39A1.56,1.56,0,0,1,382,241.65Zm-11-3.11h9.45v-5.27H371Z" transform="translate(0.5 0.5)" style="fill:#171717;stroke:#171717;stroke-miterlimit:10;stroke-width:1.0002933810373547px"/><path d="M439.12,218.17H426.55a1.56,1.56,0,0,1-1.56-1.56v-8.39a1.56,1.56,0,0,1,1.56-1.56h12.57a1.56,1.56,0,0,1,1.56,1.56v8.39A1.56,1.56,0,0,1,439.12,218.17Zm-11-3.11h9.45v-5.27h-9.45Z" transform="translate(0.5 0.5)" style="fill:#171717;stroke:#171717;stroke-miterlimit:10;stroke-width:1.0002933810373547px"/><path d="M439.12,241.44H426.55a1.56,1.56,0,0,1-1.56-1.56v-8.39a1.56,1.56,0,0,1,1.56-1.56h12.57a1.56,1.56,0,0,1,1.56,1.56v8.39A1.56,1.56,0,0,1,439.12,241.44Zm-11-3.11h9.45V233h-9.45Z" transform="translate(0.5 0.5)" style="fill:#171717;stroke:#171717;stroke-miterlimit:10;stroke-width:1.0002933810373547px"/><path d="M439.12,264.71H426.55a1.56,1.56,0,0,1-1.56-1.56v-8.39a1.56,1.56,0,0,1,1.56-1.56h12.57a1.56,1.56,0,0,1,1.56,1.56v8.39A1.56,1.56,0,0,1,439.12,264.71Zm-11-3.11h9.45v-5.28h-9.45Z" transform="translate(0.5 0.5)" style="fill:#171717;stroke:#171717;stroke-miterlimit:10;stroke-width:1.0002933810373547px"/><path d="M405.93,241.65H393.36a1.56,1.56,0,0,1-1.56-1.56v-8.39a1.56,1.56,0,0,1,1.56-1.56h12.57a1.56,1.56,0,0,1,1.56,1.56v8.39A1.56,1.56,0,0,1,405.93,241.65Zm-11-3.11h9.45v-5.27h-9.45Z" transform="translate(0.5 0.5)" style="fill:#171717;stroke:#171717;stroke-miterlimit:10;stroke-width:1.0002933810373547px"/><path d="M382,262.09H369.39a1.56,1.56,0,0,1-1.56-1.56v-8.39a1.56,1.56,0,0,1,1.56-1.56H382a1.56,1.56,0,0,1,1.56,1.56v8.39A1.56,1.56,0,0,1,382,262.09ZM371,259h9.45V253.7H371Z" transform="translate(0.5 0.5)" style="fill:#171717;stroke:#171717;stroke-miterlimit:10;stroke-width:1.0002933810373547px"/><path d="M405.93,262.09H393.36a1.56,1.56,0,0,1-1.56-1.56v-8.39a1.56,1.56,0,0,1,1.56-1.56h12.57a1.56,1.56,0,0,1,1.56,1.56v8.39A1.56,1.56,0,0,1,405.93,262.09Zm-11-3.11h9.45V253.7h-9.45Z" transform="translate(0.5 0.5)" style="fill:#171717;stroke:#171717;stroke-miterlimit:10;stroke-width:1.0002933810373547px"/><path d="M395.06,288.89h-14.8a1.56,1.56,0,0,1-1.56-1.56V265.56a1.56,1.56,0,0,1,1.56-1.56h14.8a1.56,1.56,0,0,1,1.56,1.56v21.77A1.56,1.56,0,0,1,395.06,288.89Zm-13.24-3.11H393.5V267.12H381.82Z" transform="translate(0.5 0.5)" style="fill:#171717;stroke:#171717;stroke-miterlimit:10;stroke-width:1.0002933810373547px"/><path d="M461.45,288.89h-111a1.56,1.56,0,1,1,0-3.11h111a1.56,1.56,0,1,1,0,3.11Z" transform="translate(0.5 0.5)" style="fill:#171717;stroke:#171717;stroke-miterlimit:10;stroke-width:1.0002933810373547px"/><path d="M284.66,215H171.21a1.56,1.56,0,0,1-1.18-2.57l22.16-25.72a1.56,1.56,0,0,1,1.18-.54h51.21a1.56,1.56,0,1,1,0,3.11h-50.5L174.61,211.9H281.26l-13.85-16.09a1.56,1.56,0,0,1,2.36-2l16.07,18.66a1.56,1.56,0,0,1-1.18,2.57Z" transform="translate(0.5 0.5)" style="fill:#171717;stroke:#171717;stroke-miterlimit:10;stroke-width:1.0002933810373547px"/><path d="M275.81,264H180.06a1.56,1.56,0,0,1-1.56-1.56v-49a1.56,1.56,0,0,1,1.56-1.56h95.74a1.56,1.56,0,0,1,1.56,1.56v49A1.56,1.56,0,0,1,275.81,264Zm-94.19-3.11h92.63V215H181.62Z" transform="translate(0.5 0.5)" style="fill:#171717;stroke:#171717;stroke-miterlimit:10;stroke-width:1.0002933810373547px"/><path d="M235.93,264h-16a1.56,1.56,0,0,1-1.56-1.56V230.32a1.56,1.56,0,0,1,1.56-1.56h16a1.56,1.56,0,0,1,1.56,1.56v32.16A1.56,1.56,0,0,1,235.93,264Zm-14.43-3.11h12.87v-29H221.5Z" transform="translate(0.5 0.5)" style="fill:#171717;stroke:#171717;stroke-miterlimit:10;stroke-width:1.0002933810373547px"/><path d="M208.13,248h-16a1.56,1.56,0,0,1-1.56-1.56V230.32a1.56,1.56,0,0,1,1.56-1.56h16a1.56,1.56,0,0,1,1.56,1.56V246.4A1.56,1.56,0,0,1,208.13,248Zm-14.43-3.11h12.87v-13H193.7Z" transform="translate(0.5 0.5)" style="fill:#171717;stroke:#171717;stroke-miterlimit:10;stroke-width:1.0002933810373547px"/><path d="M265.69,248h-16a1.56,1.56,0,0,1-1.56-1.56V230.32a1.56,1.56,0,0,1,1.56-1.56h16a1.56,1.56,0,0,1,1.56,1.56V246.4A1.56,1.56,0,0,1,265.69,248Zm-14.43-3.11h12.87v-13H251.27Z" transform="translate(0.5 0.5)" style="fill:#171717;stroke:#171717;stroke-miterlimit:10;stroke-width:1.0002933810373547px"/><path d="M273,186.05a1.54,1.54,0,0,1-.81-.23l-15.59-9.5L241,185.83a1.56,1.56,0,1,1-1.62-2.66l16.4-10a1.56,1.56,0,0,1,1.62,0l16.4,10a1.56,1.56,0,0,1-.81,2.89Z" transform="translate(0.5 0.5)" style="fill:#171717;stroke:#171717;stroke-miterlimit:10;stroke-width:1.0002933810373547px"/><path d="M268.6,206.92h-24a1.56,1.56,0,0,1-1.56-1.56V181.82a1.56,1.56,0,0,1,3.12,0v22H267v-22a1.56,1.56,0,0,1,3.12,0v23.54A1.56,1.56,0,0,1,268.6,206.92Z" transform="translate(0.5 0.5)" style="fill:#171717;stroke:#171717;stroke-miterlimit:10;stroke-width:1.0002933810373547px"/><path d="M262.3,198.44H250.88a1.56,1.56,0,0,1-1.56-1.56V185.47a1.56,1.56,0,0,1,1.56-1.56H262.3a1.56,1.56,0,0,1,1.56,1.56v11.42A1.56,1.56,0,0,1,262.3,198.44Zm-9.87-3.11h8.31V187h-8.31Z" transform="translate(0.5 0.5)" style="fill:#171717;stroke:#171717;stroke-miterlimit:10;stroke-width:1.0002933810373547px"/><path d="M214.3,189.29H198.47a1.56,1.56,0,0,1-1.56-1.56V176.95a1.56,1.56,0,0,1,1.56-1.56H214.3a1.56,1.56,0,0,1,1.56,1.56v10.79A1.56,1.56,0,0,1,214.3,189.29ZM200,186.18h12.71V178.5H200Z" transform="translate(0.5 0.5)" style="fill:#171717;stroke:#171717;stroke-miterlimit:10;stroke-width:1.0002933810373547px"/><path d="M283.59,264H172.28a1.56,1.56,0,1,1,0-3.11h111.3a1.56,1.56,0,1,1,0,3.11Z" transform="translate(0.5 0.5)" style="fill:#171717;stroke:#171717;stroke-miterlimit:10;stroke-width:1.0002933810373547px"/><path d="M402.27,447H299.75a1.56,1.56,0,1,1,0-3.11H402.27a1.56,1.56,0,1,1,0,3.11Z" transform="translate(0.5 0.5)" style="fill:#171717;stroke:#171717;stroke-miterlimit:10;stroke-width:1.0002933810373547px"/><path d="M305,404.34a1.56,1.56,0,0,1-1.21-2.54l37.74-46.46a1.56,1.56,0,0,1,1.21-.58h0a1.56,1.56,0,0,1,1.21.58l11,13.55a1.56,1.56,0,0,1-2.42,2l-9.79-12.06-36.53,45A1.55,1.55,0,0,1,305,404.34Z" transform="translate(0.5 0.5)" style="fill:#171717;stroke:#171717;stroke-miterlimit:10;stroke-width:1.0002933810373547px"/><path d="M335,447H315.07a1.56,1.56,0,0,1-1.56-1.56V391.28a1.56,1.56,0,0,1,3.12,0v52.61H335a1.56,1.56,0,1,1,0,3.11Z" transform="translate(0.5 0.5)" style="fill:#171717;stroke:#171717;stroke-miterlimit:10;stroke-width:1.0002933810373547px"/><path d="M295.74,404.34a1.56,1.56,0,0,1-1.21-2.54L341.48,344a1.61,1.61,0,0,1,2.42,0l15.61,19.22a1.56,1.56,0,0,1-2.42,2l-14.4-17.73L297,403.76A1.55,1.55,0,0,1,295.74,404.34Z" transform="translate(0.5 0.5)" style="fill:#171717;stroke:#171717;stroke-miterlimit:10;stroke-width:1.0002933810373547px"/><path d="M399.25,408.77a1.55,1.55,0,0,1-1.21-.58L365.43,368l-32.61,40.15a1.56,1.56,0,1,1-2.42-2l33.82-41.64a1.61,1.61,0,0,1,2.42,0l33.82,41.64a1.56,1.56,0,0,1-1.21,2.54Z" transform="translate(0.5 0.5)" style="fill:#171717;stroke:#171717;stroke-miterlimit:10;stroke-width:1.0002933810373547px"/><path d="M390.18,447h-49.5a1.56,1.56,0,0,1-1.56-1.56V396.9a1.56,1.56,0,0,1,3.12,0v47h46.39v-47a1.56,1.56,0,0,1,3.12,0v48.54A1.56,1.56,0,0,1,390.18,447Z" transform="translate(0.5 0.5)" style="fill:#171717;stroke:#171717;stroke-miterlimit:10;stroke-width:1.0002933810373547px"/><path d="M407.5,408.77a1.55,1.55,0,0,1-1.21-.58l-40.86-50.31-40.86,50.31a1.56,1.56,0,1,1-2.42-2l42.07-51.8a1.61,1.61,0,0,1,2.42,0l42.07,51.8a1.56,1.56,0,0,1-1.21,2.54Z" transform="translate(0.5 0.5)" style="fill:#171717;stroke:#171717;stroke-miterlimit:10;stroke-width:1.0002933810373547px"/><path d="M331.61,430.25H320.27a1.56,1.56,0,0,1-1.56-1.56V419.8a1.56,1.56,0,0,1,1.56-1.56h11.35a1.56,1.56,0,0,1,1.56,1.56v8.89A1.56,1.56,0,0,1,331.61,430.25Zm-9.79-3.11h8.23v-5.78h-8.23Z" transform="translate(0.5 0.5)" style="fill:#171717;stroke:#171717;stroke-miterlimit:10;stroke-width:1.0002933810373547px"/><path d="M362,408.78H350.65a1.56,1.56,0,0,1-1.56-1.56v-8.89a1.56,1.56,0,0,1,1.56-1.56H362a1.56,1.56,0,0,1,1.56,1.56v8.89A1.56,1.56,0,0,1,362,408.78Zm-9.79-3.11h8.23v-5.78h-8.23Z" transform="translate(0.5 0.5)" style="fill:#171717;stroke:#171717;stroke-miterlimit:10;stroke-width:1.0002933810373547px"/><path d="M379.49,408.78H368.14a1.56,1.56,0,0,1-1.56-1.56v-8.89a1.56,1.56,0,0,1,1.56-1.56h11.35a1.56,1.56,0,0,1,1.56,1.56v8.89A1.56,1.56,0,0,1,379.49,408.78Zm-9.79-3.11h8.23v-5.78H369.7Z" transform="translate(0.5 0.5)" style="fill:#171717;stroke:#171717;stroke-miterlimit:10;stroke-width:1.0002933810373547px"/><path d="M362.36,428.81H351a1.56,1.56,0,0,1-1.56-1.56v-8.89A1.56,1.56,0,0,1,351,416.8h11.35a1.56,1.56,0,0,1,1.56,1.56v8.89A1.56,1.56,0,0,1,362.36,428.81Zm-9.79-3.11h8.23v-5.78h-8.23Z" transform="translate(0.5 0.5)" style="fill:#171717;stroke:#171717;stroke-miterlimit:10;stroke-width:1.0002933810373547px"/><path d="M379.85,428.81H368.5a1.56,1.56,0,0,1-1.56-1.56v-8.89a1.56,1.56,0,0,1,1.56-1.56h11.35a1.56,1.56,0,0,1,1.56,1.56v8.89A1.56,1.56,0,0,1,379.85,428.81Zm-9.79-3.11h8.23v-5.78h-8.23Z" transform="translate(0.5 0.5)" style="fill:#171717;stroke:#171717;stroke-miterlimit:10;stroke-width:1.0002933810373547px"/><path d="M233,415.93H108.64a1.56,1.56,0,1,1,0-3.11H233a1.56,1.56,0,1,1,0,3.11Z" transform="translate(0.5 0.5)" style="fill:#171717;stroke:#171717;stroke-miterlimit:10;stroke-width:1.0002933810373547px"/><path d="M171.69,415.93h-51a1.56,1.56,0,0,1-1.56-1.56V331.5a1.56,1.56,0,0,1,1.56-1.56h51a1.56,1.56,0,0,1,1.56,1.56v82.87A1.56,1.56,0,0,1,171.69,415.93Zm-49.49-3.11h47.93V333.06H122.2Z" transform="translate(0.5 0.5)" style="fill:#171717;stroke:#171717;stroke-miterlimit:10;stroke-width:1.0002933810373547px"/><path d="M155.78,415.93H136.56a1.56,1.56,0,0,1-1.56-1.56V331.5a1.56,1.56,0,0,1,1.56-1.56h19.22a1.56,1.56,0,0,1,1.56,1.56v82.87A1.56,1.56,0,0,1,155.78,415.93Zm-17.66-3.11h16.1V333.06h-16.1Z" transform="translate(0.5 0.5)" style="fill:#171717;stroke:#171717;stroke-miterlimit:10;stroke-width:1.0002933810373547px"/><path d="M222.74,415.93h-51a1.56,1.56,0,0,1-1.56-1.56V364.8a1.56,1.56,0,0,1,1.56-1.56h51a1.56,1.56,0,0,1,1.56,1.56v49.58A1.56,1.56,0,0,1,222.74,415.93Zm-49.49-3.11h47.93V366.36H173.25Z" transform="translate(0.5 0.5)" style="fill:#171717;stroke:#171717;stroke-miterlimit:10;stroke-width:1.0002933810373547px"/><path d="M206.83,415.93H187.61a1.56,1.56,0,0,1-1.56-1.56V364.8a1.56,1.56,0,0,1,1.56-1.56h19.22a1.56,1.56,0,0,1,1.56,1.56v49.58A1.56,1.56,0,0,1,206.83,415.93Zm-17.66-3.11h16.11V366.36H189.16Z" transform="translate(0.5 0.5)" style="fill:#171717;stroke:#171717;stroke-miterlimit:10;stroke-width:1.0002933810373547px"/><path d="M227.28,366.36H171.69a1.56,1.56,0,0,1-1.56-1.56v-9.6a1.56,1.56,0,0,1,1.56-1.56h55.59a1.56,1.56,0,0,1,1.56,1.56v9.6A1.56,1.56,0,0,1,227.28,366.36Zm-54-3.11h52.48v-6.49H173.25Z" transform="translate(0.5 0.5)" style="fill:#171717;stroke:#171717;stroke-miterlimit:10;stroke-width:1.0002933810373547px"/><path d="M164.66,333.06h-37a1.56,1.56,0,0,1-1.56-1.56V318.95a1.56,1.56,0,0,1,1.56-1.56h37a1.56,1.56,0,0,1,1.56,1.56V331.5A1.56,1.56,0,0,1,164.66,333.06Zm-35.44-3.11H163.1V320.5H129.23Z" transform="translate(0.5 0.5)" style="fill:#171717;stroke:#171717;stroke-miterlimit:10;stroke-width:1.0002933810373547px"/><path d="M154.9,320.5H137.43a1.56,1.56,0,0,1-1.56-1.56V300.51a1.56,1.56,0,0,1,1.56-1.56H154.9a1.56,1.56,0,0,1,1.56,1.56v18.44A1.56,1.56,0,0,1,154.9,320.5ZM139,317.39h14.35V302.07H139Z" transform="translate(0.5 0.5)" style="fill:#171717;stroke:#171717;stroke-miterlimit:10;stroke-width:1.0002933810373547px"/><path d="M155.78,415.93H136.56a1.56,1.56,0,0,1-1.56-1.56V399.92a1.56,1.56,0,0,1,1.56-1.56h19.22a1.56,1.56,0,0,1,1.56,1.56v14.46A1.56,1.56,0,0,1,155.78,415.93Zm-17.66-3.11h16.1V401.47h-16.1Z" transform="translate(0.5 0.5)" style="fill:#171717;stroke:#171717;stroke-miterlimit:10;stroke-width:1.0002933810373547px"/><path d="M155.78,401.47H136.56a1.56,1.56,0,0,1-1.56-1.56v-4.75a1.56,1.56,0,0,1,1.56-1.56h19.22a1.56,1.56,0,0,1,1.56,1.56v4.75A1.56,1.56,0,0,1,155.78,401.47Zm-17.66-3.11h16.1v-1.64h-16.1Z" transform="translate(0.5 0.5)" style="fill:#171717;stroke:#171717;stroke-miterlimit:10;stroke-width:1.0002933810373547px"/><line x1="172.65" y1="178.12" x2="141.35" y2="160.06" style="fill:#171717;stroke:#171717;stroke-linecap:round;stroke-miterlimit:10;stroke-width:3.2785640325128136px"/><line x1="110.05" y1="178.12" x2="141.35" y2="160.06" style="fill:#171717;stroke:#171717;stroke-linecap:round;stroke-miterlimit:10;stroke-width:3.2785640325128136px"/><line x1="141.35" y1="160.06" x2="141.35" y2="123.94" style="fill:#171717;stroke:#171717;stroke-linecap:round;stroke-miterlimit:10;stroke-width:3.2785640325128136px"/><circle cx="110.05" cy="178.12" r="3.92" style="fill:#171717;stroke:#171717;stroke-miterlimit:10;stroke-width:1.0002933810373547px"/><circle cx="172.65" cy="178.12" r="3.92" style="fill:#171717;stroke:#171717;stroke-miterlimit:10;stroke-width:1.0002933810373547px"/><circle cx="141.35" cy="123.94" r="3.92" style="fill:#171717;stroke:#171717;stroke-miterlimit:10;stroke-width:1.0002933810373547px"/><line x1="94.64" y1="353.61" x2="63.34" y2="335.54" style="fill:#171717;stroke:#171717;stroke-linecap:round;stroke-miterlimit:10;stroke-width:3.2785640325128136px"/><line x1="32.04" y1="353.61" x2="63.34" y2="335.54" style="fill:#171717;stroke:#171717;stroke-linecap:round;stroke-miterlimit:10;stroke-width:3.2785640325128136px"/><line x1="63.34" y1="335.54" x2="63.34" y2="299.42" style="fill:#171717;stroke:#171717;stroke-linecap:round;stroke-miterlimit:10;stroke-width:3.2785640325128136px"/><circle cx="32.04" cy="353.61" r="3.92" style="fill:#171717;stroke:#171717;stroke-miterlimit:10;stroke-width:1.0002933810373547px"/><circle cx="94.64" cy="353.61" r="3.92" style="fill:#171717;stroke:#171717;stroke-miterlimit:10;stroke-width:1.0002933810373547px"/><circle cx="63.34" cy="299.42" r="3.92" style="fill:#171717;stroke:#171717;stroke-miterlimit:10;stroke-width:1.0002933810373547px"/><line x1="308.73" y1="340.17" x2="277.43" y2="322.11" style="fill:#171717;stroke:#171717;stroke-linecap:round;stroke-miterlimit:10;stroke-width:3.2785640325128136px"/><line x1="246.13" y1="340.17" x2="277.43" y2="322.11" style="fill:#171717;stroke:#171717;stroke-linecap:round;stroke-miterlimit:10;stroke-width:3.2785640325128136px"/><line x1="277.43" y1="322.11" x2="277.43" y2="285.99" style="fill:#171717;stroke:#171717;stroke-linecap:round;stroke-miterlimit:10;stroke-width:3.2785640325128136px"/><circle cx="246.13" cy="340.17" r="3.92" style="fill:#171717;stroke:#171717;stroke-miterlimit:10;stroke-width:1.0002933810373547px"/><circle cx="308.73" cy="340.17" r="3.92" style="fill:#171717;stroke:#171717;stroke-miterlimit:10;stroke-width:1.0002933810373547px"/><circle cx="277.43" cy="285.99" r="3.92" style="fill:#171717;stroke:#171717;stroke-miterlimit:10;stroke-width:1.0002933810373547px"/><line x1="368.35" y1="194.52" x2="337.05" y2="176.45" style="fill:#171717;stroke:#171717;stroke-linecap:round;stroke-miterlimit:10;stroke-width:3.2785640325128136px"/><line x1="305.75" y1="194.52" x2="337.05" y2="176.45" style="fill:#171717;stroke:#171717;stroke-linecap:round;stroke-miterlimit:10;stroke-width:3.2785640325128136px"/><line x1="337.05" y1="176.45" x2="337.05" y2="140.33" style="fill:#171717;stroke:#171717;stroke-linecap:round;stroke-miterlimit:10;stroke-width:3.2785640325128136px"/><circle cx="305.75" cy="194.52" r="3.92" style="fill:#171717;stroke:#171717;stroke-miterlimit:10;stroke-width:1.0002933810373547px"/><circle cx="368.35" cy="194.52" r="3.92" style="fill:#171717;stroke:#171717;stroke-miterlimit:10;stroke-width:1.0002933810373547px"/><circle cx="337.05" cy="140.33" r="3.92" style="fill:#171717;stroke:#171717;stroke-miterlimit:10;stroke-width:1.0002933810373547px"/><line x1="472.48" y1="368.32" x2="441.18" y2="350.26" style="fill:#171717;stroke:#171717;stroke-linecap:round;stroke-miterlimit:10;stroke-width:3.2785640325128136px"/><line x1="409.88" y1="368.32" x2="441.18" y2="350.26" style="fill:#171717;stroke:#171717;stroke-linecap:round;stroke-miterlimit:10;stroke-width:3.2785640325128136px"/><line x1="441.18" y1="350.26" x2="441.18" y2="314.14" style="fill:#171717;stroke:#171717;stroke-linecap:round;stroke-miterlimit:10;stroke-width:3.2785640325128136px"/><circle cx="409.88" cy="368.32" r="3.92" style="fill:#171717;stroke:#171717;stroke-miterlimit:10;stroke-width:1.0002933810373547px"/><circle cx="472.48" cy="368.32" r="3.92" style="fill:#171717;stroke:#171717;stroke-miterlimit:10;stroke-width:1.0002933810373547px"/><circle cx="441.18" cy="314.14" r="3.92" style="fill:#171717;stroke:#171717;stroke-miterlimit:10;stroke-width:1.0002933810373547px"/></svg>