<svg xmlns="http://www.w3.org/2000/svg" width="746" height="623" viewBox="0 0 746 623"><title>houses-right</title><path d="M3.52,583.45a1.64,1.64,0,0,1-.81-3.06L84.37,534a1.64,1.64,0,0,1,1.8.12l37.37,28.47a1.64,1.64,0,1,1-2,2.6L85,537.43,4.33,583.23A1.62,1.62,0,0,1,3.52,583.45Z" style="fill:#171717"/><path d="M1.64,577.49a1.64,1.64,0,0,1-.81-3.06l81.66-46.34a5.45,5.45,0,0,1,6,.41L125.85,557a1.64,1.64,0,1,1-2,2.6L86.5,531.1a2.18,2.18,0,0,0-2.4-.16L2.44,577.27A1.63,1.63,0,0,1,1.64,577.49Z" style="fill:#171717"/><path d="M118.07,623H30.34a1.64,1.64,0,0,1-1.64-1.64V566.59a1.64,1.64,0,1,1,3.27,0v53.14h84.46V560.53a1.64,1.64,0,1,1,3.27,0v60.83A1.64,1.64,0,0,1,118.07,623Z" style="fill:#171717"/><path d="M9.39,623a1.64,1.64,0,0,1-1.64-1.64V578.48a1.64,1.64,0,1,1,3.27,0v42.88A1.64,1.64,0,0,1,9.39,623Z" style="fill:#171717"/><path d="M124.44,623H3.52a1.64,1.64,0,0,1,0-3.27H124.44a1.64,1.64,0,0,1,0,3.27Z" style="fill:#171717"/><path d="M118.07,616H30.34a1.64,1.64,0,0,1,0-3.27h87.73a1.64,1.64,0,0,1,0,3.27Z" style="fill:#171717"/><path d="M118.07,609H30.34a1.64,1.64,0,0,1,0-3.27h87.73a1.64,1.64,0,0,1,0,3.27Z" style="fill:#171717"/><path d="M118.07,602H30.34a1.64,1.64,0,0,1,0-3.27h87.73a1.64,1.64,0,0,1,0,3.27Z" style="fill:#171717"/><path d="M73,595H30.34a1.64,1.64,0,0,1,0-3.27H73A1.64,1.64,0,0,1,73,595Z" style="fill:#171717"/><path d="M73,588H30.34a1.64,1.64,0,0,1,0-3.27H73A1.64,1.64,0,0,1,73,588Z" style="fill:#171717"/><path d="M73,581H30.34a1.64,1.64,0,0,1,0-3.27H73A1.64,1.64,0,0,1,73,581Z" style="fill:#171717"/><path d="M73,574H30.34a1.64,1.64,0,0,1,0-3.27H73A1.64,1.64,0,0,1,73,574Z" style="fill:#171717"/><path d="M73,567H32.52a1.64,1.64,0,0,1,0-3.27H73A1.64,1.64,0,0,1,73,567Z" style="fill:#171717"/><path d="M118.07,595H96.84a1.64,1.64,0,0,1,0-3.27h21.23a1.64,1.64,0,0,1,0,3.27Z" style="fill:#171717"/><path d="M118.07,588H96.84a1.64,1.64,0,0,1,0-3.27h21.23a1.64,1.64,0,0,1,0,3.27Z" style="fill:#171717"/><path d="M118.07,581H96.84a1.64,1.64,0,0,1,0-3.27h21.23a1.64,1.64,0,0,1,0,3.27Z" style="fill:#171717"/><path d="M118.07,574H96.84a1.64,1.64,0,0,1,0-3.27h21.23a1.64,1.64,0,0,1,0,3.27Z" style="fill:#171717"/><path d="M118.07,567H97.36a1.64,1.64,0,0,1,0-3.27h20.71a1.64,1.64,0,0,1,0,3.27Z" style="fill:#171717"/><path d="M115.22,560H44.85a1.64,1.64,0,0,1,0-3.27h70.37a1.64,1.64,0,0,1,0,3.27Z" style="fill:#171717"/><path d="M106,553H57.19a1.64,1.64,0,0,1,0-3.27H106a1.64,1.64,0,0,1,0,3.27Z" style="fill:#171717"/><path d="M96.84,546H69.53a1.64,1.64,0,0,1,0-3.27H96.84a1.64,1.64,0,0,1,0,3.27Z" style="fill:#171717"/><path d="M96.84,595H73a1.64,1.64,0,0,1-1.64-1.64v-28A1.64,1.64,0,0,1,73,563.72H96.84a1.64,1.64,0,0,1,1.64,1.64v28A1.64,1.64,0,0,1,96.84,595Zm-22.22-3.27H95.2V567H74.62Z" style="fill:#171717"/><path d="M38.07,556.81a1.64,1.64,0,0,1-1.64-1.64V529a1.64,1.64,0,0,1,1.64-1.64H57.19A1.64,1.64,0,0,1,58.83,529v15.31a1.64,1.64,0,1,1-3.27,0V530.65H39.71v24.52A1.64,1.64,0,0,1,38.07,556.81Z" style="fill:#171717"/><path d="M383,442.29H314.74a1.64,1.64,0,0,1-1.64-1.64V375.14a1.64,1.64,0,0,1,1.64-1.64H383a1.64,1.64,0,0,1,1.64,1.64v65.52A1.64,1.64,0,0,1,383,442.29ZM316.37,439h64.95V376.77H316.37Z" style="fill:#171717"/><path d="M383,376.77H308.18a1.64,1.64,0,0,1-1.64-1.64V365a1.64,1.64,0,0,1,1.64-1.64H383a1.64,1.64,0,0,1,1.64,1.64v10.17A1.64,1.64,0,0,1,383,376.77Zm-73.14-3.27h71.51v-6.9H309.81Z" style="fill:#171717"/><path d="M370.49,366.6H327.2a1.64,1.64,0,0,1-1.64-1.64V348.89a1.64,1.64,0,0,1,1.64-1.64h43.3a1.64,1.64,0,0,1,1.64,1.64V365A1.64,1.64,0,0,1,370.49,366.6Zm-41.66-3.27h40v-12.8h-40Z" style="fill:#171717"/><path d="M431.82,442.29H383a1.64,1.64,0,0,1-1.64-1.64V354.14A1.64,1.64,0,0,1,383,352.5h48.87a1.64,1.64,0,0,1,1.64,1.64v86.52A1.64,1.64,0,0,1,431.82,442.29ZM384.59,439h45.59V355.78H384.59Z" style="fill:#171717"/><path d="M436.42,355.78H378.36a1.64,1.64,0,0,1-1.64-1.64V340.36a1.64,1.64,0,0,1,1.64-1.64h58.05a1.64,1.64,0,0,1,1.64,1.64v13.78A1.64,1.64,0,0,1,436.42,355.78ZM380,352.5h54.78V342H380Z" style="fill:#171717"/><path d="M356.64,442.29H340.89a1.64,1.64,0,0,1-1.64-1.64V417a1.64,1.64,0,0,1,1.64-1.64h15.74a1.64,1.64,0,0,1,1.64,1.64v23.62A1.64,1.64,0,0,1,356.64,442.29ZM342.53,439H355V418.67H342.53Z" style="fill:#171717"/><path d="M334.95,399h-14a1.64,1.64,0,0,1-1.64-1.64v-8.65a1.64,1.64,0,0,1,1.64-1.64h14a1.64,1.64,0,0,1,1.64,1.64v8.65A1.64,1.64,0,0,1,334.95,399Zm-12.38-3.27h10.75v-5.38H322.56Z" style="fill:#171717"/><path d="M355.86,399h-14a1.64,1.64,0,0,1-1.64-1.64v-8.65a1.64,1.64,0,0,1,1.64-1.64h14a1.64,1.64,0,0,1,1.64,1.64v8.65A1.64,1.64,0,0,1,355.86,399Zm-12.38-3.27h10.75v-5.38H343.47Z" style="fill:#171717"/><path d="M376.77,399h-14a1.64,1.64,0,0,1-1.64-1.64v-8.65a1.64,1.64,0,0,1,1.64-1.64h14a1.64,1.64,0,0,1,1.64,1.64v8.65A1.64,1.64,0,0,1,376.77,399Zm-12.38-3.27h10.75v-5.38H364.38Z" style="fill:#171717"/><path d="M376.77,428.43h-14a1.64,1.64,0,0,1-1.64-1.64v-8.65a1.64,1.64,0,0,1,1.64-1.64h14a1.64,1.64,0,0,1,1.64,1.64v8.65A1.64,1.64,0,0,1,376.77,428.43Zm-12.38-3.27h10.75v-5.38H364.38Z" style="fill:#171717"/><path d="M334.95,428.43h-14a1.64,1.64,0,0,1-1.64-1.64v-8.65a1.64,1.64,0,0,1,1.64-1.64h14a1.64,1.64,0,0,1,1.64,1.64v8.65A1.64,1.64,0,0,1,334.95,428.43Zm-12.38-3.27h10.75v-5.38H322.56Z" style="fill:#171717"/><path d="M403.95,399h-14a1.64,1.64,0,0,1-1.64-1.64v-8.65a1.64,1.64,0,0,1,1.64-1.64h14a1.64,1.64,0,0,1,1.64,1.64v8.65A1.64,1.64,0,0,1,403.95,399Zm-12.39-3.27h10.75v-5.38H391.56Z" style="fill:#171717"/><path d="M424.85,399h-14a1.64,1.64,0,0,1-1.64-1.64v-8.65a1.64,1.64,0,0,1,1.64-1.64h14a1.64,1.64,0,0,1,1.64,1.64v8.65A1.64,1.64,0,0,1,424.85,399Zm-12.38-3.27h10.75v-5.38H412.47Z" style="fill:#171717"/><path d="M403.95,418.67h-14a1.64,1.64,0,0,1-1.64-1.64v-8.65a1.64,1.64,0,0,1,1.64-1.64h14a1.64,1.64,0,0,1,1.64,1.64V417A1.64,1.64,0,0,1,403.95,418.67Zm-12.39-3.27h10.75V410H391.56Z" style="fill:#171717"/><path d="M424.85,418.67h-14A1.64,1.64,0,0,1,409.2,417v-8.65a1.64,1.64,0,0,1,1.64-1.64h14a1.64,1.64,0,0,1,1.64,1.64V417A1.64,1.64,0,0,1,424.85,418.67Zm-12.38-3.27h10.75V410H412.47Z" style="fill:#171717"/><path d="M403.95,377.65h-14a1.64,1.64,0,0,1-1.64-1.64v-8.65a1.64,1.64,0,0,1,1.64-1.64h14a1.64,1.64,0,0,1,1.64,1.64V376A1.64,1.64,0,0,1,403.95,377.65Zm-12.39-3.27h10.75V369H391.56Z" style="fill:#171717"/><path d="M424.85,377.65h-14A1.64,1.64,0,0,1,409.2,376v-8.65a1.64,1.64,0,0,1,1.64-1.64h14a1.64,1.64,0,0,1,1.64,1.64V376A1.64,1.64,0,0,1,424.85,377.65Zm-12.38-3.27h10.75V369H412.47Z" style="fill:#171717"/><path d="M443.45,442.29H301.15a1.64,1.64,0,0,1,0-3.27h142.3a1.64,1.64,0,0,1,0,3.27Z" style="fill:#171717"/><path d="M270.75,307H143.86a1.64,1.64,0,0,1,0-3.27H270.75a1.64,1.64,0,0,1,0,3.27Z" style="fill:#171717"/><path d="M260.57,246.16a1.63,1.63,0,0,1-.85-.24l-52.41-32-52.41,32a1.64,1.64,0,1,1-1.7-2.79l53.27-32.49a1.63,1.63,0,0,1,1.7,0l53.27,32.49a1.64,1.64,0,0,1-.85,3Z" style="fill:#171717"/><path d="M263.41,241.5a1.62,1.62,0,0,1-.85-.24l-53.27-32.49a3.81,3.81,0,0,0-4,0L152,241.26a1.64,1.64,0,1,1-1.7-2.79L203.61,206a7.06,7.06,0,0,1,7.39,0l53.27,32.49a1.64,1.64,0,0,1-.85,3Z" style="fill:#171717"/><path d="M251.93,307H162.68a1.64,1.64,0,0,1-1.64-1.64V239.53a1.64,1.64,0,1,1,3.27,0v64.24h86V239.53a1.64,1.64,0,1,1,3.27,0v65.88A1.64,1.64,0,0,1,251.93,307Z" style="fill:#171717"/><path d="M233.38,307h-24a1.64,1.64,0,0,1-1.64-1.64V260a1.64,1.64,0,0,1,1.64-1.64h24A1.64,1.64,0,0,1,235,260v45.46A1.64,1.64,0,0,1,233.38,307ZM211,303.77h20.77V261.59H211Z" style="fill:#171717"/><path d="M198.78,282.86h-24a1.64,1.64,0,0,1-1.64-1.64V260a1.64,1.64,0,0,1,1.64-1.64h24a1.64,1.64,0,0,1,1.64,1.64v21.28A1.64,1.64,0,0,1,198.78,282.86Zm-22.4-3.27h20.77v-18H176.38Z" style="fill:#171717"/><path d="M212.54,242.77H202.06a1.64,1.64,0,0,1-1.64-1.64v-9.27a1.64,1.64,0,0,1,1.64-1.64h10.48a1.64,1.64,0,0,1,1.64,1.64v9.27A1.64,1.64,0,0,1,212.54,242.77Zm-8.84-3.27h7.21v-6H203.7Z" style="fill:#171717"/><path d="M248.53,232.43a1.64,1.64,0,0,1-1.64-1.64V204.3H228.2v13.08a1.64,1.64,0,1,1-3.27,0V202.67a1.64,1.64,0,0,1,1.64-1.64h22a1.64,1.64,0,0,1,1.64,1.64v28.12A1.64,1.64,0,0,1,248.53,232.43Z" style="fill:#171717"/><path d="M359.63,543.82h-71a1.64,1.64,0,0,1,0-3.27h67.27L337.6,521.06H259.7a1.64,1.64,0,0,1,0-3.27h78.6a1.63,1.63,0,0,1,1.19.52l21.32,22.76a1.64,1.64,0,0,1-1.19,2.76Z" style="fill:#171717"/><path d="M357.84,599.6H214.45a1.64,1.64,0,0,1,0-3.27H357.84a1.64,1.64,0,0,1,0,3.27Z" style="fill:#171717"/><path d="M286.75,547.53a1.63,1.63,0,0,1-1-.34l-33.25-25.7-33.25,25.7a1.64,1.64,0,0,1-2-2.59l34.25-26.47a1.63,1.63,0,0,1,2,0l34.25,26.47a1.64,1.64,0,0,1-1,2.93Z" style="fill:#171717"/><path d="M216.42,543.74a1.64,1.64,0,0,1-1-2.93l34.25-26.47a4.52,4.52,0,0,1,5.65,0l34.25,26.47a1.64,1.64,0,0,1-2,2.59l-34.25-26.47a1.27,1.27,0,0,0-1.65,0L217.42,543.4A1.63,1.63,0,0,1,216.42,543.74Z" style="fill:#171717"/><path d="M281.2,599.6H223.8a1.64,1.64,0,0,1-1.64-1.64V541.83a1.64,1.64,0,0,1,3.27,0v54.5h54.12v-54.5a1.64,1.64,0,1,1,3.27,0V598A1.64,1.64,0,0,1,281.2,599.6Z" style="fill:#171717"/><path d="M273.81,599.6H252.5a1.64,1.64,0,0,1-1.64-1.64v-37a1.64,1.64,0,0,1,1.64-1.64h21.31a1.64,1.64,0,0,1,1.64,1.64v37A1.64,1.64,0,0,1,273.81,599.6Zm-19.68-3.27h18V562.57h-18Z" style="fill:#171717"/><path d="M243.48,576.77H228.6a1.64,1.64,0,0,1-1.64-1.64V562.27a1.64,1.64,0,0,1,1.64-1.64h14.89a1.64,1.64,0,0,1,1.64,1.64v12.86A1.64,1.64,0,0,1,243.48,576.77Zm-13.25-3.27h11.62V563.9H230.23Z" style="fill:#171717"/><path d="M308.27,572.77H293.38a1.64,1.64,0,0,1-1.64-1.64V558.27a1.64,1.64,0,0,1,1.64-1.64h14.89a1.64,1.64,0,0,1,1.64,1.64v12.86A1.64,1.64,0,0,1,308.27,572.77ZM295,569.49h11.62V559.9H295Z" style="fill:#171717"/><path d="M337.93,572.77H323a1.64,1.64,0,0,1-1.64-1.64V558.27a1.64,1.64,0,0,1,1.64-1.64h14.89a1.64,1.64,0,0,1,1.64,1.64v12.86A1.64,1.64,0,0,1,337.93,572.77Zm-13.25-3.27h11.62V559.9H324.68Z" style="fill:#171717"/><path d="M348.41,599.6a1.64,1.64,0,0,1-1.64-1.64V542.19a1.64,1.64,0,1,1,3.27,0V598A1.64,1.64,0,0,1,348.41,599.6Z" style="fill:#171717"/><path d="M325.28,521.06H312.85a1.64,1.64,0,0,1-1.64-1.64V508a1.64,1.64,0,0,1,1.64-1.64h12.43a1.64,1.64,0,0,1,1.64,1.64v11.4A1.64,1.64,0,0,1,325.28,521.06Zm-10.8-3.27h9.16v-8.13h-9.16Z" style="fill:#171717"/><path d="M217.79,480.92H119.73a1.64,1.64,0,0,1-1.64-1.64V423.89a1.64,1.64,0,0,1,1.64-1.64h98.06a1.64,1.64,0,0,1,1.64,1.64v55.39A1.64,1.64,0,0,1,217.79,480.92Zm-96.42-3.27h94.79V425.53H121.36Z" style="fill:#171717"/><path d="M187,392.76a1.62,1.62,0,0,1-.85-.24l-16.46-10-16.46,10a1.64,1.64,0,1,1-1.7-2.79l17.32-10.56a1.63,1.63,0,0,1,1.7,0l17.32,10.56a1.64,1.64,0,0,1-.85,3Z" style="fill:#171717"/><path d="M182.39,419.6H157A1.64,1.64,0,0,1,155.4,418V388.29a1.64,1.64,0,1,1,3.27,0v28h22.08v-28a1.64,1.64,0,1,1,3.27,0V418A1.64,1.64,0,0,1,182.39,419.6Z" style="fill:#171717"/><path d="M175.74,405.85H163.68a1.64,1.64,0,0,1-1.64-1.64V392.15a1.64,1.64,0,0,1,1.64-1.64h12.06a1.64,1.64,0,0,1,1.64,1.64v12.07A1.64,1.64,0,0,1,175.74,405.85Zm-10.43-3.27h8.79v-8.79h-8.79Z" style="fill:#171717"/><path d="M227.21,480.92h-115a1.64,1.64,0,0,1,0-3.27h115a1.64,1.64,0,0,1,0,3.27Z" style="fill:#171717"/><path d="M227.21,425.53h-115a1.64,1.64,0,0,1-1.24-2.7l21.2-24.63a1.64,1.64,0,0,1,1.24-.57H157a1.64,1.64,0,0,1,0,3.27H134.16l-18.38,21.36H223.65L205.26,400.9H182.39a1.64,1.64,0,0,1,0-3.27H206a1.63,1.63,0,0,1,1.24.57l21.2,24.63a1.64,1.64,0,0,1-1.24,2.7Z" style="fill:#171717"/><path d="M179.11,480.92h-18.8a1.64,1.64,0,0,1-1.64-1.64v-38a1.64,1.64,0,0,1,1.64-1.64h18.8a1.64,1.64,0,0,1,1.64,1.64v38A1.64,1.64,0,0,1,179.11,480.92Zm-17.17-3.27h15.53V443H161.95Z" style="fill:#171717"/><path d="M149,457.4H132.36a1.64,1.64,0,0,1-1.64-1.64V441a1.64,1.64,0,0,1,1.64-1.64H149a1.64,1.64,0,0,1,1.64,1.64v14.75A1.64,1.64,0,0,1,149,457.4Zm-15-3.27h13.34V442.65H134Z" style="fill:#171717"/><path d="M205.67,457.4H189.05a1.64,1.64,0,0,1-1.64-1.64V441a1.64,1.64,0,0,1,1.64-1.64h16.61A1.64,1.64,0,0,1,207.3,441v14.75A1.64,1.64,0,0,1,205.67,457.4Zm-15-3.27H204V442.65H190.69Z" style="fill:#171717"/><path d="M552.43,570.5H439a1.64,1.64,0,0,1,0-3.27H552.43a1.64,1.64,0,0,1,0,3.27Z" style="fill:#171717"/><path d="M518.09,570.5H472.52a1.64,1.64,0,0,1-1.64-1.64V475.38a1.64,1.64,0,0,1,1.64-1.64h45.57a1.64,1.64,0,0,1,1.64,1.64v93.49A1.64,1.64,0,0,1,518.09,570.5Zm-43.93-3.27h42.29V477H474.16Z" style="fill:#171717"/><path d="M505.15,570.5h-19.7a1.64,1.64,0,0,1-1.64-1.64V542.3a1.64,1.64,0,0,1,1.64-1.64h19.7a1.64,1.64,0,0,1,1.64,1.64v26.56A1.64,1.64,0,0,1,505.15,570.5Zm-18.07-3.27h16.43V543.94H487.09Z" style="fill:#171717"/><path d="M541.87,570.5H518.09a1.64,1.64,0,0,1-1.64-1.64v-77.6a1.64,1.64,0,0,1,1.64-1.64h23.78a1.64,1.64,0,0,1,1.64,1.64v77.6A1.64,1.64,0,0,1,541.87,570.5Zm-22.14-3.27h20.51V492.9H519.72Z" style="fill:#171717"/><path d="M490.66,498.37h-9.37a1.64,1.64,0,0,1-1.64-1.64v-9.37a1.64,1.64,0,0,1,1.64-1.64h9.37a1.64,1.64,0,0,1,1.64,1.64v9.37A1.64,1.64,0,0,1,490.66,498.37Zm-7.74-3.27H489V489h-6.1Z" style="fill:#171717"/><path d="M509.32,498.37h-9.37a1.64,1.64,0,0,1-1.64-1.64v-9.37a1.64,1.64,0,0,1,1.64-1.64h9.37a1.64,1.64,0,0,1,1.64,1.64v9.37A1.64,1.64,0,0,1,509.32,498.37Zm-7.74-3.27h6.1V489h-6.1Z" style="fill:#171717"/><path d="M490.66,517.47h-9.37a1.64,1.64,0,0,1-1.64-1.64v-9.37a1.64,1.64,0,0,1,1.64-1.64h9.37a1.64,1.64,0,0,1,1.64,1.64v9.37A1.64,1.64,0,0,1,490.66,517.47Zm-7.74-3.27H489v-6.1h-6.1Z" style="fill:#171717"/><path d="M509.32,517.47h-9.37a1.64,1.64,0,0,1-1.64-1.64v-9.37a1.64,1.64,0,0,1,1.64-1.64h9.37a1.64,1.64,0,0,1,1.64,1.64v9.37A1.64,1.64,0,0,1,509.32,517.47Zm-7.74-3.27h6.1v-6.1h-6.1Z" style="fill:#171717"/><path d="M534.66,510.87h-9.37a1.64,1.64,0,0,1-1.64-1.64v-9.37a1.64,1.64,0,0,1,1.64-1.64h9.37a1.64,1.64,0,0,1,1.64,1.64v9.37A1.64,1.64,0,0,1,534.66,510.87Zm-7.74-3.27H533v-6.1h-6.1Z" style="fill:#171717"/><path d="M534.66,534.48h-9.37a1.64,1.64,0,0,1-1.64-1.64v-9.37a1.64,1.64,0,0,1,1.64-1.64h9.37a1.64,1.64,0,0,1,1.64,1.64v9.37A1.64,1.64,0,0,1,534.66,534.48Zm-7.74-3.27H533v-6.1h-6.1Z" style="fill:#171717"/><path d="M534.66,558.09h-9.37a1.64,1.64,0,0,1-1.64-1.64v-9.37a1.64,1.64,0,0,1,1.64-1.64h9.37a1.64,1.64,0,0,1,1.64,1.64v9.37A1.64,1.64,0,0,1,534.66,558.09Zm-7.74-3.27H533v-6.1h-6.1Z" style="fill:#171717"/><path d="M472.52,570.5H448.74a1.64,1.64,0,0,1-1.64-1.64v-77.6a1.64,1.64,0,0,1,1.64-1.64h23.78a1.64,1.64,0,0,1,1.64,1.64v77.6A1.64,1.64,0,0,1,472.52,570.5Zm-22.14-3.27h20.51V492.9H450.38Z" style="fill:#171717"/><path d="M465.32,510.87h-9.37a1.64,1.64,0,0,1-1.64-1.64v-9.37a1.64,1.64,0,0,1,1.64-1.64h9.37a1.64,1.64,0,0,1,1.64,1.64v9.37A1.64,1.64,0,0,1,465.32,510.87Zm-7.74-3.27h6.1v-6.1h-6.1Z" style="fill:#171717"/><path d="M465.32,534.48h-9.37a1.64,1.64,0,0,1-1.64-1.64v-9.37a1.64,1.64,0,0,1,1.64-1.64h9.37a1.64,1.64,0,0,1,1.64,1.64v9.37A1.64,1.64,0,0,1,465.32,534.48Zm-7.74-3.27h6.1v-6.1h-6.1Z" style="fill:#171717"/><path d="M465.32,558.09h-9.37a1.64,1.64,0,0,1-1.64-1.64v-9.37a1.64,1.64,0,0,1,1.64-1.64h9.37a1.64,1.64,0,0,1,1.64,1.64v9.37A1.64,1.64,0,0,1,465.32,558.09Zm-7.74-3.27h6.1v-6.1h-6.1Z" style="fill:#171717"/><path d="M490.66,536.56h-9.37a1.64,1.64,0,0,1-1.64-1.64v-9.37a1.64,1.64,0,0,1,1.64-1.64h9.37a1.64,1.64,0,0,1,1.64,1.64v9.37A1.64,1.64,0,0,1,490.66,536.56Zm-7.74-3.27H489v-6.1h-6.1Z" style="fill:#171717"/><path d="M509.32,536.56h-9.37a1.64,1.64,0,0,1-1.64-1.64v-9.37a1.64,1.64,0,0,1,1.64-1.64h9.37a1.64,1.64,0,0,1,1.64,1.64v9.37A1.64,1.64,0,0,1,509.32,536.56Zm-7.74-3.27h6.1v-6.1h-6.1Z" style="fill:#171717"/><path d="M499.42,279H376.68a1.64,1.64,0,0,1,0-3.27H499.42a1.64,1.64,0,0,1,0,3.27Z" style="fill:#171717"/><path d="M452.12,279H408.68a1.64,1.64,0,0,1-1.64-1.64V188.24a1.64,1.64,0,0,1,1.64-1.64h43.44a1.64,1.64,0,0,1,1.64,1.64v89.13A1.64,1.64,0,0,1,452.12,279Zm-41.81-3.27h40.17V189.88H410.31Z" style="fill:#171717"/><path d="M443.76,189.88H417a1.64,1.64,0,0,1-1.64-1.64V172.16a1.64,1.64,0,0,1,1.64-1.64h26.73a1.64,1.64,0,0,1,1.64,1.64v16.08A1.64,1.64,0,0,1,443.76,189.88Zm-25.09-3.27h23.45V173.8H418.67Z" style="fill:#171717"/><path d="M435.51,173.8H425.29a1.64,1.64,0,0,1-1.64-1.64V156.08a1.64,1.64,0,0,1,1.64-1.64h10.22a1.64,1.64,0,0,1,1.64,1.64v16.08A1.64,1.64,0,0,1,435.51,173.8Zm-8.58-3.27h6.94V157.72h-6.94Z" style="fill:#171717"/><path d="M439.79,279H421a1.64,1.64,0,0,1-1.64-1.64V252a1.64,1.64,0,0,1,1.64-1.64h18.78a1.64,1.64,0,0,1,1.64,1.64v25.32A1.64,1.64,0,0,1,439.79,279Zm-17.15-3.27h15.51v-22H422.64Z" style="fill:#171717"/><path d="M490.75,279H452.12a1.64,1.64,0,0,1-1.64-1.64V188.43a1.64,1.64,0,0,1,1.64-1.64h38.63a1.64,1.64,0,0,1,1.64,1.64v88.94A1.64,1.64,0,0,1,490.75,279Zm-37-3.27h35.36V190.06H453.76Z" style="fill:#171717"/><path d="M426,210.24H417a1.64,1.64,0,0,1-1.64-1.64v-8.94A1.64,1.64,0,0,1,417,198H426a1.64,1.64,0,0,1,1.64,1.64v8.94A1.64,1.64,0,0,1,426,210.24Zm-7.3-3.27h5.66V201.3h-5.66Z" style="fill:#171717"/><path d="M401.81,207.06h-8.94a1.64,1.64,0,0,1-1.64-1.64v-8.94a1.64,1.64,0,0,1,1.64-1.64h8.94a1.64,1.64,0,0,1,1.64,1.64v8.94A1.64,1.64,0,0,1,401.81,207.06Zm-7.3-3.27h5.66v-5.66h-5.66Z" style="fill:#171717"/><path d="M401.81,225.27h-8.94a1.64,1.64,0,0,1-1.64-1.64v-8.94a1.64,1.64,0,0,1,1.64-1.64h8.94a1.64,1.64,0,0,1,1.64,1.64v8.94A1.64,1.64,0,0,1,401.81,225.27Zm-7.3-3.27h5.66v-5.66h-5.66Z" style="fill:#171717"/><path d="M401.81,243.47h-8.94a1.64,1.64,0,0,1-1.64-1.64V232.9a1.64,1.64,0,0,1,1.64-1.64h8.94a1.64,1.64,0,0,1,1.64,1.64v8.94A1.64,1.64,0,0,1,401.81,243.47Zm-7.3-3.27h5.66v-5.66h-5.66Z" style="fill:#171717"/><path d="M401.81,261.68h-8.94a1.64,1.64,0,0,1-1.64-1.64v-8.94a1.64,1.64,0,0,1,1.64-1.64h8.94a1.64,1.64,0,0,1,1.64,1.64V260A1.64,1.64,0,0,1,401.81,261.68Zm-7.3-3.27h5.66v-5.66h-5.66Z" style="fill:#171717"/><path d="M467.92,207.06H459a1.64,1.64,0,0,1-1.64-1.64v-8.94a1.64,1.64,0,0,1,1.64-1.64h8.94a1.64,1.64,0,0,1,1.64,1.64v8.94A1.64,1.64,0,0,1,467.92,207.06Zm-7.3-3.27h5.66v-5.66h-5.66Z" style="fill:#171717"/><path d="M467.92,225.27H459a1.64,1.64,0,0,1-1.64-1.64v-8.94a1.64,1.64,0,0,1,1.64-1.64h8.94a1.64,1.64,0,0,1,1.64,1.64v8.94A1.64,1.64,0,0,1,467.92,225.27Zm-7.3-3.27h5.66v-5.66h-5.66Z" style="fill:#171717"/><path d="M467.92,243.47H459a1.64,1.64,0,0,1-1.64-1.64V232.9a1.64,1.64,0,0,1,1.64-1.64h8.94a1.64,1.64,0,0,1,1.64,1.64v8.94A1.64,1.64,0,0,1,467.92,243.47Zm-7.3-3.27h5.66v-5.66h-5.66Z" style="fill:#171717"/><path d="M467.92,261.68H459a1.64,1.64,0,0,1-1.64-1.64v-8.94a1.64,1.64,0,0,1,1.64-1.64h8.94a1.64,1.64,0,0,1,1.64,1.64V260A1.64,1.64,0,0,1,467.92,261.68Zm-7.3-3.27h5.66v-5.66h-5.66Z" style="fill:#171717"/><path d="M484,207.06H475.1a1.64,1.64,0,0,1-1.64-1.64v-8.94a1.64,1.64,0,0,1,1.64-1.64H484a1.64,1.64,0,0,1,1.64,1.64v8.94A1.64,1.64,0,0,1,484,207.06Zm-7.3-3.27h5.66v-5.66h-5.66Z" style="fill:#171717"/><path d="M484,225.27H475.1a1.64,1.64,0,0,1-1.64-1.64v-8.94a1.64,1.64,0,0,1,1.64-1.64H484a1.64,1.64,0,0,1,1.64,1.64v8.94A1.64,1.64,0,0,1,484,225.27Zm-7.3-3.27h5.66v-5.66h-5.66Z" style="fill:#171717"/><path d="M484,243.47H475.1a1.64,1.64,0,0,1-1.64-1.64V232.9a1.64,1.64,0,0,1,1.64-1.64H484a1.64,1.64,0,0,1,1.64,1.64v8.94A1.64,1.64,0,0,1,484,243.47Zm-7.3-3.27h5.66v-5.66h-5.66Z" style="fill:#171717"/><path d="M484,261.68H475.1a1.64,1.64,0,0,1-1.64-1.64v-8.94a1.64,1.64,0,0,1,1.64-1.64H484a1.64,1.64,0,0,1,1.64,1.64V260A1.64,1.64,0,0,1,484,261.68Zm-7.3-3.27h5.66v-5.66h-5.66Z" style="fill:#171717"/><path d="M443.76,210.24h-8.94a1.64,1.64,0,0,1-1.64-1.64v-8.94a1.64,1.64,0,0,1,1.64-1.64h8.94a1.64,1.64,0,0,1,1.64,1.64v8.94A1.64,1.64,0,0,1,443.76,210.24Zm-7.3-3.27h5.66V201.3h-5.66Z" style="fill:#171717"/><path d="M426,228.44H417a1.64,1.64,0,0,1-1.64-1.64v-8.94a1.64,1.64,0,0,1,1.64-1.64H426a1.64,1.64,0,0,1,1.64,1.64v8.94A1.64,1.64,0,0,1,426,228.44Zm-7.3-3.27h5.66v-5.66h-5.66Z" style="fill:#171717"/><path d="M443.76,228.44h-8.94a1.64,1.64,0,0,1-1.64-1.64v-8.94a1.64,1.64,0,0,1,1.64-1.64h8.94a1.64,1.64,0,0,1,1.64,1.64v8.94A1.64,1.64,0,0,1,443.76,228.44Zm-7.3-3.27h5.66v-5.66h-5.66Z" style="fill:#171717"/><path d="M408.68,279H386a1.64,1.64,0,0,1-1.64-1.64V188.43a1.64,1.64,0,0,1,1.64-1.64h22.67a1.64,1.64,0,0,1,1.64,1.64v88.94A1.64,1.64,0,0,1,408.68,279Zm-21-3.27H407V190.06h-19.4Z" style="fill:#171717"/><path d="M426,246.65H417A1.64,1.64,0,0,1,415.4,245v-8.94a1.64,1.64,0,0,1,1.64-1.64H426a1.64,1.64,0,0,1,1.64,1.64V245A1.64,1.64,0,0,1,426,246.65Zm-7.3-3.27h5.66v-5.66h-5.66Z" style="fill:#171717"/><path d="M443.76,246.65h-8.94a1.64,1.64,0,0,1-1.64-1.64v-8.94a1.64,1.64,0,0,1,1.64-1.64h8.94a1.64,1.64,0,0,1,1.64,1.64V245A1.64,1.64,0,0,1,443.76,246.65Zm-7.3-3.27h5.66v-5.66h-5.66Z" style="fill:#171717"/><path d="M744.36,257.74H614.81a1.64,1.64,0,0,1,0-3.27H744.36a1.64,1.64,0,0,1,0,3.27Z" style="fill:#171717"/><path d="M739.6,189.14a1.62,1.62,0,0,1-.85-.24L679.6,152.82l-59.16,36.09a1.64,1.64,0,1,1-1.7-2.79l60-36.61a1.63,1.63,0,0,1,1.7,0l60,36.61a1.64,1.64,0,0,1-.85,3Z" style="fill:#171717"/><path d="M616.39,183.9a1.64,1.64,0,0,1-.85-3l60-36.61a7.74,7.74,0,0,1,8.1,0l60,36.61a1.64,1.64,0,0,1-1.7,2.79l-60-36.61a4.5,4.5,0,0,0-4.7,0l-60,36.6A1.62,1.62,0,0,1,616.39,183.9Z" style="fill:#171717"/><path d="M729.87,257.74H629.33a1.64,1.64,0,0,1-1.64-1.64V181.89a1.64,1.64,0,1,1,3.27,0v72.58h97.27V181.89a1.64,1.64,0,1,1,3.27,0V256.1A1.64,1.64,0,0,1,729.87,257.74Z" style="fill:#171717"/><path d="M652.77,193.18H641a1.64,1.64,0,0,1-1.64-1.64V181.09a1.64,1.64,0,0,1,1.64-1.64h11.81a1.64,1.64,0,0,1,1.64,1.64v10.45A1.64,1.64,0,0,1,652.77,193.18ZM642.6,189.9h8.53v-7.18H642.6Z" style="fill:#171717"/><path d="M674.59,193.18H662.79a1.64,1.64,0,0,1-1.64-1.64V181.09a1.64,1.64,0,0,1,1.64-1.64h11.81a1.64,1.64,0,0,1,1.64,1.64v10.45A1.64,1.64,0,0,1,674.59,193.18Zm-10.17-3.27H673v-7.18h-8.53Z" style="fill:#171717"/><path d="M696.41,193.18H684.61a1.64,1.64,0,0,1-1.64-1.64V181.09a1.64,1.64,0,0,1,1.64-1.64h11.81a1.64,1.64,0,0,1,1.64,1.64v10.45A1.64,1.64,0,0,1,696.41,193.18Zm-10.17-3.27h8.53v-7.18h-8.53Z" style="fill:#171717"/><path d="M718.23,193.18H706.43a1.64,1.64,0,0,1-1.64-1.64V181.09a1.64,1.64,0,0,1,1.64-1.64h11.81a1.64,1.64,0,0,1,1.64,1.64v10.45A1.64,1.64,0,0,1,718.23,193.18Zm-10.17-3.27h8.53v-7.18h-8.53Z" style="fill:#171717"/><path d="M652.77,215.18H641a1.64,1.64,0,0,1-1.64-1.64V203.1a1.64,1.64,0,0,1,1.64-1.64h11.81a1.64,1.64,0,0,1,1.64,1.64v10.45A1.64,1.64,0,0,1,652.77,215.18Zm-10.17-3.27h8.53v-7.18H642.6Z" style="fill:#171717"/><path d="M674.59,215.18H662.79a1.64,1.64,0,0,1-1.64-1.64V203.1a1.64,1.64,0,0,1,1.64-1.64h11.81a1.64,1.64,0,0,1,1.64,1.64v10.45A1.64,1.64,0,0,1,674.59,215.18Zm-10.17-3.27H673v-7.18h-8.53Z" style="fill:#171717"/><path d="M696.41,215.18H684.61a1.64,1.64,0,0,1-1.64-1.64V203.1a1.64,1.64,0,0,1,1.64-1.64h11.81A1.64,1.64,0,0,1,698,203.1v10.45A1.64,1.64,0,0,1,696.41,215.18Zm-10.17-3.27h8.53v-7.18h-8.53Z" style="fill:#171717"/><path d="M718.23,215.18H706.43a1.64,1.64,0,0,1-1.64-1.64V203.1a1.64,1.64,0,0,1,1.64-1.64h11.81a1.64,1.64,0,0,1,1.64,1.64v10.45A1.64,1.64,0,0,1,718.23,215.18Zm-10.17-3.27h8.53v-7.18h-8.53Z" style="fill:#171717"/><path d="M652.77,237.19H641a1.64,1.64,0,0,1-1.64-1.64V225.1a1.64,1.64,0,0,1,1.64-1.64h11.81a1.64,1.64,0,0,1,1.64,1.64v10.45A1.64,1.64,0,0,1,652.77,237.19Zm-10.17-3.27h8.53v-7.18H642.6Z" style="fill:#171717"/><path d="M718.23,237.19H706.43a1.64,1.64,0,0,1-1.64-1.64V225.1a1.64,1.64,0,0,1,1.64-1.64h11.81a1.64,1.64,0,0,1,1.64,1.64v10.45A1.64,1.64,0,0,1,718.23,237.19Zm-10.17-3.27h8.53v-7.18h-8.53Z" style="fill:#171717"/><path d="M720.09,169.77a1.64,1.64,0,0,1-1.64-1.64V152H707.84v7.67a1.64,1.64,0,1,1-3.27,0v-9.31a1.64,1.64,0,0,1,1.64-1.64h13.89a1.64,1.64,0,0,1,1.64,1.64v17.78A1.64,1.64,0,0,1,720.09,169.77Z" style="fill:#171717"/><path d="M690.09,257.74h-21a1.64,1.64,0,0,1-1.64-1.64V233.37a12.13,12.13,0,1,1,24.25,0V256.1A1.64,1.64,0,0,1,690.09,257.74Zm-19.35-3.27h17.71v-21.1a8.85,8.85,0,1,0-17.71,0Z" style="fill:#171717"/><path d="M661,421H531.43a1.64,1.64,0,0,1,0-3.27H661a1.64,1.64,0,0,1,0,3.27Z" style="fill:#171717"/><path d="M652.25,421H540.5a1.64,1.64,0,0,1-1.64-1.64V326.78a1.64,1.64,0,0,1,1.64-1.64H652.25a1.64,1.64,0,0,1,1.64,1.64v92.59A1.64,1.64,0,0,1,652.25,421Zm-110.11-3.27H650.61V328.42H542.14Z" style="fill:#171717"/><path d="M660.25,328.42H532.5a1.64,1.64,0,0,1-1.64-1.64v-8.16A1.64,1.64,0,0,1,532.5,317H660.25a1.64,1.64,0,0,1,1.64,1.64v8.16A1.64,1.64,0,0,1,660.25,328.42Zm-126.11-3.27H658.61v-4.88H534.14Z" style="fill:#171717"/><path d="M652.25,383.9H540.5a1.64,1.64,0,0,1,0-3.27H652.25a1.64,1.64,0,0,1,0,3.27Z" style="fill:#171717"/><path d="M608.88,421H583.52a1.64,1.64,0,0,1-1.64-1.64V389a1.64,1.64,0,0,1,1.64-1.64h25.36a1.64,1.64,0,0,1,1.64,1.64v30.37A1.64,1.64,0,0,1,608.88,421Zm-23.73-3.27h22.09v-27.1H585.16Z" style="fill:#171717"/><path d="M626.84,406.82h-7.55a1.64,1.64,0,0,1-1.64-1.64V388.46a1.64,1.64,0,0,1,1.64-1.64h7.55a1.64,1.64,0,0,1,1.64,1.64v16.73A1.64,1.64,0,0,1,626.84,406.82Zm-5.91-3.27h4.27V390.09h-4.27Z" style="fill:#171717"/><path d="M642.25,406.82H634.7a1.64,1.64,0,0,1-1.64-1.64V388.46a1.64,1.64,0,0,1,1.64-1.64h7.55a1.64,1.64,0,0,1,1.64,1.64v16.73A1.64,1.64,0,0,1,642.25,406.82Zm-5.91-3.27h4.27V390.09h-4.27Z" style="fill:#171717"/><path d="M559.63,406.82h-7.55a1.64,1.64,0,0,1-1.64-1.64V388.46a1.64,1.64,0,0,1,1.64-1.64h7.55a1.64,1.64,0,0,1,1.64,1.64v16.73A1.64,1.64,0,0,1,559.63,406.82Zm-5.91-3.27H558V390.09h-4.27Z" style="fill:#171717"/><path d="M575,406.82H567.5a1.64,1.64,0,0,1-1.64-1.64V388.46a1.64,1.64,0,0,1,1.64-1.64H575a1.64,1.64,0,0,1,1.64,1.64v16.73A1.64,1.64,0,0,1,575,406.82Zm-5.91-3.27h4.27V390.09h-4.27Z" style="fill:#171717"/><path d="M625.2,347.18h-7.55a1.64,1.64,0,0,1-1.64-1.64V335a1.64,1.64,0,0,1,1.64-1.64h7.55a1.64,1.64,0,0,1,1.64,1.64v10.55A1.64,1.64,0,0,1,625.2,347.18Zm-5.91-3.27h4.27v-7.27h-4.27Z" style="fill:#171717"/><path d="M640.61,347.18h-7.55a1.64,1.64,0,0,1-1.64-1.64V335a1.64,1.64,0,0,1,1.64-1.64h7.55a1.64,1.64,0,0,1,1.64,1.64v10.55A1.64,1.64,0,0,1,640.61,347.18Zm-5.91-3.27H639v-7.27H634.7Z" style="fill:#171717"/><path d="M609.79,347.18h-7.55a1.64,1.64,0,0,1-1.64-1.64V335a1.64,1.64,0,0,1,1.64-1.64h7.55a1.64,1.64,0,0,1,1.64,1.64v10.55A1.64,1.64,0,0,1,609.79,347.18Zm-5.91-3.27h4.27v-7.27h-4.27Z" style="fill:#171717"/><path d="M594.38,347.18h-7.55a1.64,1.64,0,0,1-1.64-1.64V335a1.64,1.64,0,0,1,1.64-1.64h7.55A1.64,1.64,0,0,1,596,335v10.55A1.64,1.64,0,0,1,594.38,347.18Zm-5.91-3.27h4.27v-7.27h-4.27Z" style="fill:#171717"/><path d="M579,347.18h-7.55a1.64,1.64,0,0,1-1.64-1.64V335a1.64,1.64,0,0,1,1.64-1.64H579a1.64,1.64,0,0,1,1.64,1.64v10.55A1.64,1.64,0,0,1,579,347.18Zm-5.91-3.27h4.27v-7.27h-4.27Z" style="fill:#171717"/><path d="M563.56,347.18H556a1.64,1.64,0,0,1-1.64-1.64V335a1.64,1.64,0,0,1,1.64-1.64h7.54A1.64,1.64,0,0,1,565.2,335v10.55A1.64,1.64,0,0,1,563.56,347.18Zm-5.91-3.27h4.27v-7.27h-4.27Z" style="fill:#171717"/><path d="M625.2,369h-7.55a1.64,1.64,0,0,1-1.64-1.64V356.81a1.64,1.64,0,0,1,1.64-1.64h7.55a1.64,1.64,0,0,1,1.64,1.64v10.55A1.64,1.64,0,0,1,625.2,369Zm-5.91-3.27h4.27v-7.27h-4.27Z" style="fill:#171717"/><path d="M640.61,369h-7.55a1.64,1.64,0,0,1-1.64-1.64V356.81a1.64,1.64,0,0,1,1.64-1.64h7.55a1.64,1.64,0,0,1,1.64,1.64v10.55A1.64,1.64,0,0,1,640.61,369Zm-5.91-3.27H639v-7.27H634.7Z" style="fill:#171717"/><path d="M609.79,369h-7.55a1.64,1.64,0,0,1-1.64-1.64V356.81a1.64,1.64,0,0,1,1.64-1.64h7.55a1.64,1.64,0,0,1,1.64,1.64v10.55A1.64,1.64,0,0,1,609.79,369Zm-5.91-3.27h4.27v-7.27h-4.27Z" style="fill:#171717"/><path d="M594.38,369h-7.55a1.64,1.64,0,0,1-1.64-1.64V356.81a1.64,1.64,0,0,1,1.64-1.64h7.55a1.64,1.64,0,0,1,1.64,1.64v10.55A1.64,1.64,0,0,1,594.38,369Zm-5.91-3.27h4.27v-7.27h-4.27Z" style="fill:#171717"/><path d="M579,369h-7.55a1.64,1.64,0,0,1-1.64-1.64V356.81a1.64,1.64,0,0,1,1.64-1.64H579a1.64,1.64,0,0,1,1.64,1.64v10.55A1.64,1.64,0,0,1,579,369Zm-5.91-3.27h4.27v-7.27h-4.27Z" style="fill:#171717"/><path d="M563.56,369H556a1.64,1.64,0,0,1-1.64-1.64V356.81a1.64,1.64,0,0,1,1.64-1.64h7.54a1.64,1.64,0,0,1,1.64,1.64v10.55A1.64,1.64,0,0,1,563.56,369Zm-5.91-3.27h4.27v-7.27h-4.27Z" style="fill:#171717"/><path d="M487.59,111.28a1.56,1.56,0,0,1,0-3.12l111.84-.59h0a1.56,1.56,0,0,1,0,3.12l-111.84.59Z" style="fill:#171717"/><path d="M596.66,45.92H578.8a1.56,1.56,0,0,1-.88-.27L543.5,22.18,509.09,45.65a1.56,1.56,0,0,1-.88.27H490.35a1.56,1.56,0,0,1-1.56-1.56V12.6A1.56,1.56,0,0,1,490.35,11H596.66a1.56,1.56,0,0,1,1.56,1.56V44.37A1.56,1.56,0,0,1,596.66,45.92Zm-17.38-3.12H595.1V14.16H491.9V42.81h15.82L542.63,19a1.56,1.56,0,0,1,1.76,0Z" style="fill:#171717"/><path d="M569.9,45.92a1.55,1.55,0,0,1-.88-.27L543.5,28.25,518,45.65a1.56,1.56,0,0,1-1.76-2.57l26.4-18a1.56,1.56,0,0,1,1.76,0l26.4,18a1.56,1.56,0,0,1-.88,2.85Z" style="fill:#171717"/><path d="M554.47,96.48H532.53a1.56,1.56,0,0,1,0-3.12h21.94a1.56,1.56,0,1,1,0,3.12Z" style="fill:#171717"/><path d="M554.47,101H532.53a1.56,1.56,0,0,1,0-3.12h21.94a1.56,1.56,0,1,1,0,3.12Z" style="fill:#171717"/><path d="M554.47,105.53H532.53a1.56,1.56,0,0,1,0-3.12h21.94a1.56,1.56,0,1,1,0,3.12Z" style="fill:#171717"/><path d="M562.26,93.95a1.56,1.56,0,0,1-1.56-1.56V41.32H526.31V92.39a1.56,1.56,0,0,1-3.12,0V39.76a1.56,1.56,0,0,1,1.56-1.56h37.51a1.56,1.56,0,0,1,1.56,1.56V92.39A1.56,1.56,0,0,1,562.26,93.95Z" style="fill:#171717"/><path d="M550.64,96.48a1.56,1.56,0,0,1-1.56-1.56V73.31H537.93V94.92a1.56,1.56,0,0,1-3.12,0V71.76a1.56,1.56,0,0,1,1.56-1.56h14.27a1.56,1.56,0,0,1,1.56,1.56V94.92A1.56,1.56,0,0,1,550.64,96.48Z" style="fill:#171717"/><path d="M512.59,66.41h-6.94a1.56,1.56,0,0,1-1.56-1.56V54.26a1.56,1.56,0,0,1,1.56-1.56h6.94a1.56,1.56,0,0,1,1.56,1.56V64.85A1.56,1.56,0,0,1,512.59,66.41Zm-5.38-3.12H511V55.82h-3.82Z" style="fill:#171717"/><path d="M580,66.41H573a1.56,1.56,0,0,1-1.56-1.56V54.26A1.56,1.56,0,0,1,573,52.71H580a1.56,1.56,0,0,1,1.56,1.56V64.85A1.56,1.56,0,0,1,580,66.41Zm-5.38-3.12h3.82V55.82h-3.82Z" style="fill:#171717"/><path d="M553.55,61.11h-20.1a1.56,1.56,0,1,1,0-3.12h20.1a1.56,1.56,0,0,1,0,3.12Z" style="fill:#171717"/><path d="M591.6,111H495.41a1.56,1.56,0,0,1-1.56-1.56V44.37a1.56,1.56,0,0,1,3.12,0v63.5H590V45a1.56,1.56,0,1,1,3.12,0v64.44A1.56,1.56,0,0,1,591.6,111Z" style="fill:#171717"/><path d="M532.53,111H495.41a1.56,1.56,0,0,1-1.56-1.56v-17a1.56,1.56,0,0,1,1.56-1.56h37.12a1.56,1.56,0,0,1,1.56,1.56v17A1.56,1.56,0,0,1,532.53,111ZM497,107.86h34V93.95H497Z" style="fill:#171717"/><path d="M591.6,111H554.47a1.56,1.56,0,0,1-1.56-1.56v-17a1.56,1.56,0,0,1,1.56-1.56H591.6a1.56,1.56,0,0,1,1.56,1.56v17A1.56,1.56,0,0,1,591.6,111ZM556,107.86h34V93.95H556Z" style="fill:#171717"/><path d="M512.59,93.45h-6.94a1.56,1.56,0,0,1-1.56-1.56V81.77a1.56,1.56,0,0,1,1.56-1.56h6.94a1.56,1.56,0,0,1,1.56,1.56V91.89A1.56,1.56,0,0,1,512.59,93.45Zm-5.38-3.12H511v-7h-3.82Z" style="fill:#171717"/><path d="M580,93.45H573a1.56,1.56,0,0,1-1.56-1.56V81.77A1.56,1.56,0,0,1,573,80.21H580a1.56,1.56,0,0,1,1.56,1.56V91.89A1.56,1.56,0,0,1,580,93.45Zm-5.38-3.12h3.82v-7h-3.82Z" style="fill:#171717"/><path d="M578.25,14.16H565.83a1.56,1.56,0,0,1-1.56-1.56v-11A1.56,1.56,0,0,1,565.83,0h12.43a1.56,1.56,0,0,1,1.56,1.56v11A1.56,1.56,0,0,1,578.25,14.16ZM567.38,11h9.31V3.12h-9.31Z" style="fill:#171717"/><line x1="200.57" y1="548.37" x2="169.28" y2="530.3" style="fill:#171717;stroke:#171717;stroke-linecap:round;stroke-miterlimit:10;stroke-width:3.279180314007173px"/><line x1="137.98" y1="548.37" x2="169.28" y2="530.3" style="fill:#171717;stroke:#171717;stroke-linecap:round;stroke-miterlimit:10;stroke-width:3.279180314007173px"/><line x1="169.28" y1="530.3" x2="169.28" y2="494.16" style="fill:#171717;stroke:#171717;stroke-linecap:round;stroke-miterlimit:10;stroke-width:3.279180314007173px"/><circle cx="137.98" cy="548.37" r="3.91" style="fill:#171717;stroke:#171717;stroke-miterlimit:10;stroke-width:0.5180379705419164px"/><circle cx="200.57" cy="548.37" r="3.91" style="fill:#171717;stroke:#171717;stroke-miterlimit:10;stroke-width:0.5180379705419164px"/><circle cx="169.28" cy="494.16" r="3.91" style="fill:#171717;stroke:#171717;stroke-miterlimit:10;stroke-width:0.5180379705419164px"/><line x1="425.96" y1="514.32" x2="394.67" y2="496.25" style="fill:#171717;stroke:#171717;stroke-linecap:round;stroke-miterlimit:10;stroke-width:3.279180314007173px"/><line x1="363.37" y1="514.32" x2="394.67" y2="496.25" style="fill:#171717;stroke:#171717;stroke-linecap:round;stroke-miterlimit:10;stroke-width:3.279180314007173px"/><line x1="394.67" y1="496.25" x2="394.67" y2="460.11" style="fill:#171717;stroke:#171717;stroke-linecap:round;stroke-miterlimit:10;stroke-width:3.279180314007173px"/><circle cx="363.37" cy="514.32" r="3.91" style="fill:#171717;stroke:#171717;stroke-miterlimit:10;stroke-width:0.5180379705419164px"/><circle cx="425.96" cy="514.32" r="3.91" style="fill:#171717;stroke:#171717;stroke-miterlimit:10;stroke-width:0.5180379705419164px"/><circle cx="394.67" cy="460.11" r="3.91" style="fill:#171717;stroke:#171717;stroke-miterlimit:10;stroke-width:0.5180379705419164px"/><line x1="519.89" y1="351.47" x2="488.6" y2="333.4" style="fill:#171717;stroke:#171717;stroke-linecap:round;stroke-miterlimit:10;stroke-width:3.279180314007173px"/><line x1="457.3" y1="351.47" x2="488.6" y2="333.4" style="fill:#171717;stroke:#171717;stroke-linecap:round;stroke-miterlimit:10;stroke-width:3.279180314007173px"/><line x1="488.6" y1="333.4" x2="488.6" y2="297.25" style="fill:#171717;stroke:#171717;stroke-linecap:round;stroke-miterlimit:10;stroke-width:3.279180314007173px"/><circle cx="457.3" cy="351.47" r="3.91" style="fill:#171717;stroke:#171717;stroke-miterlimit:10;stroke-width:0.5180379705419164px"/><circle cx="519.89" cy="351.47" r="3.91" style="fill:#171717;stroke:#171717;stroke-miterlimit:10;stroke-width:0.5180379705419164px"/><circle cx="488.6" cy="297.25" r="3.91" style="fill:#171717;stroke:#171717;stroke-miterlimit:10;stroke-width:0.5180379705419164px"/><line x1="581.74" y1="191.93" x2="550.45" y2="173.86" style="fill:#171717;stroke:#171717;stroke-linecap:round;stroke-miterlimit:10;stroke-width:3.279180314007173px"/><line x1="519.15" y1="191.93" x2="550.45" y2="173.86" style="fill:#171717;stroke:#171717;stroke-linecap:round;stroke-miterlimit:10;stroke-width:3.279180314007173px"/><line x1="550.45" y1="173.86" x2="550.45" y2="137.72" style="fill:#171717;stroke:#171717;stroke-linecap:round;stroke-miterlimit:10;stroke-width:3.279180314007173px"/><circle cx="519.15" cy="191.93" r="3.91" style="fill:#171717;stroke:#171717;stroke-miterlimit:10;stroke-width:0.5180379705419164px"/><circle cx="581.74" cy="191.93" r="3.91" style="fill:#171717;stroke:#171717;stroke-miterlimit:10;stroke-width:0.5180379705419164px"/><circle cx="550.45" cy="137.72" r="3.91" style="fill:#171717;stroke:#171717;stroke-miterlimit:10;stroke-width:0.5180379705419164px"/><line x1="628.19" y1="497.15" x2="596.89" y2="479.08" style="fill:#171717;stroke:#171717;stroke-linecap:round;stroke-miterlimit:10;stroke-width:3.279180314007173px"/><line x1="565.6" y1="497.15" x2="596.89" y2="479.08" style="fill:#171717;stroke:#171717;stroke-linecap:round;stroke-miterlimit:10;stroke-width:3.279180314007173px"/><line x1="596.89" y1="479.08" x2="596.89" y2="442.94" style="fill:#171717;stroke:#171717;stroke-linecap:round;stroke-miterlimit:10;stroke-width:3.279180314007173px"/><circle cx="565.6" cy="497.15" r="3.91" style="fill:#171717;stroke:#171717;stroke-miterlimit:10;stroke-width:0.5180379705419164px"/><circle cx="628.19" cy="497.15" r="3.91" style="fill:#171717;stroke:#171717;stroke-miterlimit:10;stroke-width:0.5180379705419164px"/><circle cx="596.89" cy="442.94" r="3.91" style="fill:#171717;stroke:#171717;stroke-miterlimit:10;stroke-width:0.5180379705419164px"/><line x1="283.79" y1="381.51" x2="252.5" y2="363.44" style="fill:#171717;stroke:#171717;stroke-linecap:round;stroke-miterlimit:10;stroke-width:3.279180314007173px"/><line x1="221.2" y1="381.51" x2="252.5" y2="363.44" style="fill:#171717;stroke:#171717;stroke-linecap:round;stroke-miterlimit:10;stroke-width:3.279180314007173px"/><line x1="252.5" y1="363.44" x2="252.5" y2="327.3" style="fill:#171717;stroke:#171717;stroke-linecap:round;stroke-miterlimit:10;stroke-width:3.279180314007173px"/><circle cx="221.2" cy="381.51" r="3.91" style="fill:#171717;stroke:#171717;stroke-miterlimit:10;stroke-width:0.5180379705419164px"/><circle cx="283.79" cy="381.51" r="3.91" style="fill:#171717;stroke:#171717;stroke-miterlimit:10;stroke-width:0.5180379705419164px"/><circle cx="252.5" cy="327.3" r="3.91" style="fill:#171717;stroke:#171717;stroke-miterlimit:10;stroke-width:0.5180379705419164px"/></svg>