<?xml version="1.0" encoding="utf-8"?>
<!-- Generator: Adobe Illustrator 22.0.1, SVG Export Plug-In . SVG Version: 6.00 Build 0)  -->
<svg version="1.1" id="Layer_1" xmlns="http://www.w3.org/2000/svg" xmlns:xlink="http://www.w3.org/1999/xlink" x="0px" y="0px"
	 viewBox="0 0 757.2 132.1" style="enable-background:new 0 0 757.2 132.1;" xml:space="preserve">
<style type="text/css">
	.st0{fill:#FFFFFF;}
	.st1{fill:url(#SVGID_1_);}
	.st2{fill:#E6E7E8;}
	.st3{fill:#31334C;}
	.st4{fill:#DA8929;}
	.st5{fill:#F7B563;}
</style>
<g>
	<path class="st0" d="M170,83.2h2.3c1.1,0,1.6-0.6,1.7-1.7l3.5-43.4h10.2l11,25.4c1.3,3.1,2.6,7.2,2.6,7.2h0.2c0,0,1.4-4.1,2.6-7.2
		l11-25.4h10.2l3.5,43.4c0.1,1.1,0.6,1.7,1.7,1.7h2.3v8.4h-8.5c-3.5,0-4.7-1.5-5-5.1l-1.8-23.8c-0.3-3.5-0.1-8.3-0.1-8.3h-0.2
		c0,0-1.6,5.3-2.9,8.3l-8.9,19.7h-8l-8.9-19.7c-1.4-3-2.9-8.4-2.9-8.4h-0.2c0,0,0.2,4.8-0.1,8.4l-1.7,23.8c-0.3,3.6-1.6,5.1-5.1,5.1
		H170V83.2z"/>
	<path class="st0" d="M240.7,63c0-1.1-0.6-1.7-1.7-1.7h-3v-8.1h9.1c3.5,0,5,1.6,5,5.1v23.6c0,1.1,0.6,1.7,1.7,1.7h3v8.1h-9.1
		c-3.5,0-5-1.5-5-5.1V63z M241.1,38.1h8.3v8.8h-8.3V38.1z"/>
	<path class="st0" d="M256.9,99c2.7,0,7.7-0.8,7.7-7.1V63c0-1.1-0.6-1.7-1.7-1.7h-3v-8.1h9.1c3.6,0,5.1,1.6,5.1,5.1v34.4
		c0,12.9-10.8,14.5-16,14.5c-1.7,0-2.9-0.2-2.9-0.2v-8.1C255.2,98.9,255.9,99,256.9,99z M264.9,38.1h8.4v8.8h-8.4V38.1z"/>
	<path class="st0" d="M285.9,63c0-1.1-0.6-1.7-1.7-1.7h-3v-8.1h8.8c3.4,0,5,1.6,5,4.3v1.1c0,0.8-0.2,1.7-0.2,1.7h0.2
		c1.7-3.2,5.8-8,13.6-8c8.5,0,13.4,4.4,13.4,14.6v15c0,1.1,0.6,1.7,1.7,1.7h3v8.1h-9.1c-3.6,0-5.1-1.5-5.1-5.1V68.9
		c0-4.7-1.2-7.8-6-7.8c-5.1,0-9,3.2-10.3,7.8c-0.5,1.6-0.8,3.3-0.8,5.1v17.6h-9.5V63z"/>
	<path class="st0" d="M354,47.9c0-1.1-0.6-1.7-1.7-1.7h-3v-8.1h9.1c3.5,0,5.1,0.8,5.1,4.4v24.2h2.9c1.2,0,2.8-0.2,3.6-1.4l7.8-12.1
		h10.6l-9.7,14.5c-1.7,2.4-2.9,3-2.9,3v0.2c0,0,1.4,0.5,2.7,3l4.4,8.3c0.6,1.1,1.4,1.4,3.2,1.4h2.6v8.1h-7.1c-3.2,0-4.5-0.5-6-3.3
		l-6.4-12c-0.8-1.4-2.3-1.4-3.5-1.4h-2.1v16.8H354V47.9z"/>
	<path class="st0" d="M414.7,67.5h1.2v-0.3c0-5.5-2.2-7.5-7.1-7.5c-1.7,0-5.1,0.5-5.1,2.6v2h-8.9v-4.1c0-7.2,10.1-7.9,14.1-7.9
		c12.8,0,16.6,6.7,16.6,15.3v14.3c0,1.1,0.6,1.7,1.7,1.7h3v8.1h-8.6c-3.5,0-4.9-2-4.9-4.2c0-1,0.1-1.7,0.1-1.7h-0.2
		c0,0-2.9,6.8-11.6,6.8c-6.9,0-13.1-4.3-13.1-12C391.9,68.5,408.5,67.5,414.7,67.5z M407.3,85c5.1,0,8.7-5.4,8.7-10.1V74h-1.7
		c-5,0-12.9,0.7-12.9,6C401.5,82.6,403.4,85,407.3,85z"/>
	<path class="st0" d="M437.8,63c0-1.1-0.6-1.7-1.7-1.7h-3v-8.1h8.8c3.4,0,5,1.6,5,4.3v1.1c0,0.8-0.2,1.7-0.2,1.7h0.2
		c1.7-3.2,5.8-8,13.6-8c8.5,0,13.4,4.4,13.4,14.6v15c0,1.1,0.6,1.7,1.7,1.7h3v8.1h-9.1c-3.6,0-5.1-1.5-5.1-5.1V68.9
		c0-4.7-1.2-7.8-6-7.8c-5.1,0-9,3.2-10.3,7.8c-0.5,1.6-0.8,3.3-0.8,5.1v17.6h-9.5V63z"/>
	<path class="st0" d="M486.4,60.8h-5v-7.6h5.2V42.7h9.3v10.5h8.7v7.6H496v15.5c0,6.3,5,7.2,7.6,7.2c1.1,0,1.7-0.2,1.7-0.2v8.4
		c0,0-1.2,0.2-2.9,0.2c-5.3,0-16-1.6-16-14.5V60.8z"/>
	<path class="st0" d="M530.7,52.3c11.7,0,21.1,8.4,21.1,20.1c0,11.8-9.3,20.1-21.1,20.1c-11.7,0-21-8.3-21-20.1
		C509.7,60.6,519,52.3,530.7,52.3z M530.7,84.4c6.2,0,11.4-4.8,11.4-12c0-7.1-5.2-12-11.4-12c-6.2,0-11.4,4.9-11.4,12
		C519.3,79.5,524.5,84.4,530.7,84.4z"/>
	<path class="st0" d="M577.6,52.3c11.7,0,21.1,8.4,21.1,20.1c0,11.8-9.3,20.1-21.1,20.1c-11.7,0-21-8.3-21-20.1
		C556.6,60.6,565.9,52.3,577.6,52.3z M577.6,84.4c6.2,0,11.4-4.8,11.4-12c0-7.1-5.2-12-11.4-12c-6.2,0-11.4,4.9-11.4,12
		C566.2,79.5,571.4,84.4,577.6,84.4z"/>
	<path class="st0" d="M607.3,63c0-1.1-0.6-1.7-1.7-1.7h-3v-8.1h8.7c3.4,0,5.1,1.4,5.1,4.7v2.3c0,1.4-0.2,2.4-0.2,2.4h0.2
		c1.7-5.5,6.3-9.9,12.2-9.9c0.8,0,1.7,0.2,1.7,0.2v9.4c0,0-1-0.2-2.3-0.2c-4.1,0-8.7,2.3-10.5,8.1c-0.5,1.9-0.8,4-0.8,6.2v15.2h-9.5
		V63z"/>
	<path class="st0" d="M658.3,68.3h2.1v-0.5c0-7.9-2.9-10.7-9.8-10.7c-1.9,0-7.4,0.5-7.4,3.3v2.4h-4.9v-3.6c0-5.3,9-6.4,12.3-6.4
		c12,0,14.8,6.4,14.8,14.5v18.1c0,1.1,0.6,1.7,1.7,1.7h3.2v4.4h-5.2c-3.2,0-4.5-1.4-4.5-4.5c0-1.7,0.1-2.8,0.1-2.8h-0.2
		c0.1,0-3.1,8.2-12.6,8.2c-6.3,0-12.9-3.7-12.9-11.2C635.1,68.7,651.8,68.3,658.3,68.3z M648.8,88.1c7.2,0,11.6-7.5,11.6-14.1v-1.7
		h-2.2c-5.9,0-17.8,0.2-17.8,8.7C640.4,84.5,643.2,88.1,648.8,88.1z"/>
	<path class="st0" d="M678.5,59.8c0-1.1-0.6-1.7-1.7-1.7h-3.2v-4.4h5.2c3.2,0,4.5,1.4,4.5,4c0,1.5-0.1,2.6-0.1,2.6h0.2
		c0,0,3-7.5,13-7.5c10.2,0,16.5,8.1,16.5,19.9c0,12-7.2,19.8-16.9,19.8c-9.3,0-12.4-7.2-12.4-7.2h-0.2c0,0,0.2,1.4,0.2,3.3v18h-5.1
		V59.8z M695.5,88c6.7,0,12.2-5.6,12.2-15.3c0-9.3-4.9-15.2-12-15.2c-6.3,0-12.3,4.5-12.3,15.3C683.5,80.4,687.6,88,695.5,88z"/>
	<path class="st0" d="M722.7,59.8c0-1.1-0.6-1.7-1.7-1.7h-3.2v-4.4h5.2c3.2,0,4.5,1.4,4.5,4c0,1.5-0.1,2.6-0.1,2.6h0.2
		c0,0,3-7.5,13-7.5c10.2,0,16.5,8.1,16.5,19.9c0,12-7.2,19.8-16.9,19.8c-9.3,0-12.4-7.2-12.4-7.2h-0.2c0,0,0.2,1.4,0.2,3.3v18h-5.1
		V59.8z M739.7,88c6.7,0,12.2-5.6,12.2-15.3c0-9.3-4.9-15.2-12-15.2c-6.3,0-12.3,4.5-12.3,15.3C727.7,80.4,731.8,88,739.7,88z"/>
</g>
<g>
	<linearGradient id="SVGID_1_" gradientUnits="userSpaceOnUse" x1="66.0505" y1="131.7127" x2="66.0505" y2="0.3975">
		<stop  offset="0" style="stop-color:#DDEAF1"/>
		<stop  offset="0.5472" style="stop-color:#FFFFFF"/>
	</linearGradient>
	<path class="st1" d="M28.1,131.7c-15.3,0-27.7-12.4-27.7-27.7V28.1c0-15.3,12.4-27.7,27.7-27.7H104c15.3,0,27.7,12.4,27.7,27.7V104
		c0,15.3-12.4,27.7-27.7,27.7H28.1z"/>
	<path class="st2" d="M104,0.7c15.1,0,27.4,12.3,27.4,27.4V104c0,15.1-12.3,27.4-27.4,27.4H93.3H41.7H28.1
		C13,131.4,0.7,119.1,0.7,104V28.1C0.7,13,13,0.7,28.1,0.7H104 M104,0H28.1C12.6,0,0,12.6,0,28.1V104c0,15.5,12.6,28.1,28.1,28.1
		h13.6h51.6H104c15.5,0,28.1-12.6,28.1-28.1V28.1C132.1,12.6,119.5,0,104,0L104,0z"/>
</g>
<path class="st3" d="M110.1,81.9l-39.9,18.2l-0.2-0.1L22.8,85.5c-0.3-0.1-0.6-0.1-0.9-0.1c-1.4,0-2.6,0.9-3,2.2
	c-0.5,1.6,0.4,3.4,2.1,3.9l48.5,14.9c0.7,0.2,1.5,0.2,2.2-0.1l41-18.6c0.8-0.3,1.3-1,1.6-1.7c0.3-0.8,0.3-1.6-0.1-2.4
	C113.5,81.9,111.6,81.2,110.1,81.9z"/>
<path class="st4" d="M69.9,85.1L22.8,70.6c-0.3-0.1-0.6-0.1-0.9-0.1c-1.4,0-2.6,0.9-3,2.2c-0.2,0.8-0.2,1.6,0.2,2.4
	c0.4,0.7,1,1.3,1.8,1.5l48.5,14.9c0.7,0.2,1.5,0.2,2.2-0.1l41-18.6c1.6-0.7,2.3-2.6,1.5-4.1c-0.7-1.5-2.6-2.2-4.1-1.5L70.1,85.1
	L69.9,85.1z"/>
<path class="st5" d="M20.9,61.6l48.5,14.9c0.7,0.2,1.6,0.2,2.2-0.2c0.1-0.1,16.7-7.9,25.8-11.7c13.1-5.5,13.1-12.3,13.1-23.4v-0.6
	c0-1.4-1-2.7-2.4-3L60,25.7c-0.2-0.1-0.5-0.1-0.7-0.1c-0.7,0-1.4,0.2-1.9,0.7c-0.7,0.6-1.2,1.5-1.2,2.5c0,10.2-2.8,13.2-8.3,15.6
	L20.6,55.8c-1.2,0.5-2,1.7-1.9,3C18.8,60.1,19.7,61.2,20.9,61.6z M50.3,50c7.5-3.2,11.1-8.2,11.9-16.7l0.1-0.7l42.1,10.4l0,0.5
	c0,9.1-1,11.8-9.3,15.3c-8.2,3.5-22.1,10-24.8,11.2l-0.2,0.1L31,58.2L50.3,50z"/>
</svg>
